<svg width="98" height="99" viewBox="0 0 98 99" fill="none" xmlns="http://www.w3.org/2000/svg">
<path d="M49.0957 17.961V2" stroke="black" stroke-width="2.39203" stroke-linecap="round"/>
<path fill-rule="evenodd" clip-rule="evenodd" d="M49.0955 55.8649C49.0955 55.8649 61.853 34.6025 57.6005 26.0975C57.6005 26.0975 54.7655 19.01 49.0955 19.01C43.4255 19.01 40.5905 26.0975 40.5905 26.0975C36.338 34.6025 49.0955 55.8649 49.0955 55.8649Z" fill="black" stroke="black" stroke-width="2.39203"/>
<path fill-rule="evenodd" clip-rule="evenodd" d="M20.7457 89.8848C36.3381 99.8073 61.8531 99.8073 77.4456 89.8848V70.0399C77.4456 70.0399 102.961 57.2824 94.4555 40.2724C83.1156 21.845 56.1831 30.35 49.0956 51.6124V61.5349V51.6124C42.0081 30.35 15.0757 21.845 3.73571 40.2724C-4.76927 57.2824 20.7457 70.0399 20.7457 70.0399V89.8848Z" fill="black" stroke="black" stroke-width="2.39203" stroke-linecap="round" stroke-linejoin="round"/>
<path d="M42.0081 7.67H56.183" stroke="black" stroke-width="2.39203" stroke-linecap="round"/>
<path d="M76.0282 68.6224C76.0282 68.6224 100.126 57.2824 93.1232 41.2647C82.1234 24.68 56.1832 36.0199 49.0957 54.4474V60.4009V54.4474C42.0083 36.0199 16.0681 24.68 5.06828 41.2647C-1.93416 57.2824 22.1633 68.6224 22.1633 68.6224" stroke="white" stroke-width="2.39203" stroke-linecap="round" stroke-linejoin="round"/>
<path d="M20.7457 89.8848C36.3382 81.3799 61.8532 81.3799 77.4456 89.8848M20.7457 70.0399C36.3382 61.5349 61.8532 61.5349 77.4456 70.0399H20.7457ZM20.7457 79.9624C36.3382 71.4574 61.8532 71.4574 77.4456 79.9624H20.7457Z" stroke="white" stroke-width="2.39203" stroke-linecap="round" stroke-linejoin="round"/>
</svg>
