<svg width="80" height="89" viewBox="0 0 80 89" fill="none" xmlns="http://www.w3.org/2000/svg">
<path fill-rule="evenodd" clip-rule="evenodd" d="M2.0863 87.0498H78.6312V78.5449H2.0863V87.0498Z" fill="black" stroke="black" stroke-width="2.39203" stroke-linejoin="round"/>
<path fill-rule="evenodd" clip-rule="evenodd" d="M12.0087 67.2049L16.2612 60.1174H64.4561L68.7086 67.2049H12.0087Z" fill="black" stroke="black" stroke-width="2.39203" stroke-linejoin="round"/>
<path fill-rule="evenodd" clip-rule="evenodd" d="M10.5913 78.5448V67.2049H70.1262V78.5448H10.5913Z" fill="black" stroke="black" stroke-width="2.39203" stroke-linejoin="round"/>
<path fill-rule="evenodd" clip-rule="evenodd" d="M16.2614 60.1174V23.2625H64.4563V60.1174H16.2614Z" fill="black" stroke="black" stroke-width="2.39203"/>
<path fill-rule="evenodd" clip-rule="evenodd" d="M16.2612 23.2624L7.75623 16.175H72.9611L64.4561 23.2624H16.2612Z" fill="black" stroke="black" stroke-width="2.39203" stroke-linejoin="round"/>
<path fill-rule="evenodd" clip-rule="evenodd" d="M7.75623 16.175V2H19.0962V7.66999H33.2712V2H47.4462V7.66999H61.6211V2H72.9611V16.175H7.75623Z" fill="black" stroke="black" stroke-width="2.39203" stroke-linejoin="round"/>
<path d="M10.5913 77.1274H70.1262" stroke="white" stroke-width="1.59468" stroke-linecap="round"/>
<path d="M13.4263 65.7874H67.2912" stroke="white" stroke-width="1.59468" stroke-linecap="round"/>
<path d="M16.2614 60.1174H64.4563" stroke="white" stroke-width="1.59468" stroke-linecap="round"/>
<path d="M16.2614 23.2625H64.4563" stroke="white" stroke-width="1.59468" stroke-linecap="round"/>
<path d="M7.75623 16.175H72.9611" stroke="white" stroke-width="1.59468" stroke-linecap="round"/>
</svg>
