<svg width="69" height="90" viewBox="0 0 69 90" fill="none" xmlns="http://www.w3.org/2000/svg">
<path d="M34.6024 1.44849C28.3371 1.44849 23.2625 6.52313 23.2625 12.7885C23.2625 15.3116 24.0846 17.6363 25.4738 19.5358C19.9455 22.7109 16.175 28.6361 16.175 35.4684C16.175 41.2235 18.8399 46.3548 23.0073 49.7284C14.5023 52.7335 2 65.4627 2 87.9158H67.2049C67.2049 65.4627 54.7026 52.7335 46.1976 49.7284C50.365 46.3548 53.0299 41.2235 53.0299 35.4684C53.0299 28.6361 49.2594 22.7109 43.7311 19.5358C45.1203 17.6363 45.9424 15.3116 45.9424 12.7885C45.9424 6.52313 40.8678 1.44849 34.6024 1.44849Z" fill="black" stroke="white" stroke-width="2.39203" stroke-linecap="round"/>
</svg>
