<svg width="111" height="101" viewBox="0 0 111 101" fill="none" xmlns="http://www.w3.org/2000/svg">
<path d="M8.69101 26.9325C12.9968 26.9325 16.4872 23.442 16.4872 19.1362C16.4872 14.8305 12.9968 11.34 8.69101 11.34C4.38527 11.34 0.894775 14.8305 0.894775 19.1362C0.894775 23.442 4.38527 26.9325 8.69101 26.9325Z" fill="black"/>
<path d="M31.3709 18.4275C35.6767 18.4275 39.1672 14.937 39.1672 10.6312C39.1672 6.32549 35.6767 2.83499 31.3709 2.83499C27.0652 2.83499 23.5747 6.32549 23.5747 10.6312C23.5747 14.937 27.0652 18.4275 31.3709 18.4275Z" fill="black"/>
<path d="M55.4685 15.5925C59.7742 15.5925 63.2647 12.102 63.2647 7.79624C63.2647 3.49049 59.7742 0 55.4685 0C51.1627 0 47.6722 3.49049 47.6722 7.79624C47.6722 12.102 51.1627 15.5925 55.4685 15.5925Z" fill="black"/>
<path d="M79.5659 18.4275C83.8716 18.4275 87.3621 14.937 87.3621 10.6312C87.3621 6.32549 83.8716 2.83499 79.5659 2.83499C75.2601 2.83499 71.7697 6.32549 71.7697 10.6312C71.7697 14.937 75.2601 18.4275 79.5659 18.4275Z" fill="black"/>
<path d="M102.246 26.9325C106.552 26.9325 110.042 23.442 110.042 19.1362C110.042 14.8305 106.552 11.34 102.246 11.34C97.9401 11.34 94.4496 14.8305 94.4496 19.1362C94.4496 23.442 97.9401 26.9325 102.246 26.9325Z" fill="black"/>
<path fill-rule="evenodd" clip-rule="evenodd" d="M17.1961 58.8262C41.2936 54.5737 76.731 54.5737 93.741 58.8262L100.828 23.3887L79.566 55.9912L78.7155 16.0177L63.9735 54.5737L55.4686 13.4662L46.9636 54.5737L32.2216 16.0177L31.3711 55.9912L10.1086 23.3887L17.1961 58.8262Z" fill="black" stroke="black" stroke-width="2.39203" stroke-linejoin="round"/>
<path fill-rule="evenodd" clip-rule="evenodd" d="M17.1959 58.8261C17.1959 64.4961 21.4484 64.4961 24.2834 70.1661C27.1184 74.4186 27.1184 73.0011 25.7009 80.0886C21.4484 82.9236 22.8659 87.1761 22.8659 87.1761C18.6134 91.4286 22.8659 94.2636 22.8659 94.2636C41.2934 97.0986 69.6433 97.0986 88.0708 94.2636C88.0708 94.2636 92.3233 91.4286 88.0708 87.1761C88.0708 87.1761 89.4883 82.9236 85.2358 80.0886C83.8183 73.0011 83.8183 74.4186 86.6533 70.1661C89.4883 64.4961 93.7408 64.4961 93.7408 58.8261C69.6433 54.5736 41.2934 54.5736 17.1959 58.8261Z" fill="black" stroke="black" stroke-width="2.39203" stroke-linejoin="round"/>
<path d="M22.8661 94.2636C43.9804 101.609 66.9566 101.609 88.071 94.2636" stroke="black" stroke-width="2.39203" stroke-linejoin="round"/>
<path d="M22.8661 67.3311C43.9804 59.9857 66.9566 59.9857 88.071 67.3311" stroke="white" stroke-width="2.39203" stroke-linecap="round" stroke-linejoin="round"/>
<path d="M27.1185 74.4186H83.8184" stroke="white" stroke-width="2.39203" stroke-linecap="round" stroke-linejoin="round"/>
<path d="M24.2834 82.9236C44.533 89.6274 66.4038 89.6274 86.6533 82.9236" stroke="white" stroke-width="2.39203" stroke-linecap="round" stroke-linejoin="round"/>
<path d="M21.4485 91.4286C43.4196 99.4476 67.5172 99.4476 89.4883 91.4286" stroke="white" stroke-width="2.39203" stroke-linecap="round" stroke-linejoin="round"/>
</svg>
