<svg width="97" height="98" viewBox="0 0 97 98" fill="none" xmlns="http://www.w3.org/2000/svg">
<path fill-rule="evenodd" clip-rule="evenodd" d="M10.505 88.4673C20.1156 85.7174 39.1668 89.6864 48.7774 82.7973C58.3881 89.6864 77.4392 85.7174 87.0499 88.4673C87.0499 88.4673 91.7276 89.9982 95.5548 94.1373C93.627 96.8873 90.8771 96.944 87.0499 95.5548C77.4392 92.8049 58.3881 96.8589 48.7774 92.7198C39.1668 96.8589 20.1156 92.8049 10.505 95.5548C6.67774 96.944 3.9278 96.8873 2 94.1373C5.82724 89.9982 10.505 88.4673 10.505 88.4673Z" fill="white" stroke="black" stroke-width="2.39203" stroke-linejoin="round"/>
<path fill-rule="evenodd" clip-rule="evenodd" d="M27.515 77.1274C34.6025 84.2148 62.9524 84.2148 70.0399 77.1274C71.4574 72.8749 70.0399 71.4574 70.0399 71.4574C70.0399 64.3699 62.9524 60.1174 62.9524 60.1174C78.5449 55.8649 79.9624 27.5149 48.7775 16.175C17.5925 27.5149 19.01 55.8649 34.6025 60.1174C34.6025 60.1174 27.515 64.3699 27.515 71.4574C27.515 71.4574 26.0975 72.8749 27.515 77.1274Z" fill="white" stroke="black" stroke-width="2.39203" stroke-linejoin="round"/>
<path fill-rule="evenodd" clip-rule="evenodd" d="M55.8649 9.08749C55.8649 10.9672 55.1182 12.7699 53.789 14.0991C52.4599 15.4283 50.6571 16.175 48.7774 16.175C46.8977 16.175 45.095 15.4283 43.7658 14.0991C42.4367 12.7699 41.6899 10.9672 41.6899 9.08749C41.6899 7.20777 42.4367 5.40504 43.7658 4.07588C45.095 2.74672 46.8977 2 48.7774 2C50.6571 2 52.4599 2.74672 53.789 4.07588C55.1182 5.40504 55.8649 7.20777 55.8649 9.08749Z" fill="white" stroke="black" stroke-width="2.39203" stroke-linejoin="round"/>
<path d="M41.6899 37.4374H55.8648M34.6024 60.1174H62.9523H34.6024ZM27.5149 71.4574H70.0398H27.5149ZM48.7774 30.3499V44.5249V30.3499Z" stroke="black" stroke-width="2.39203" stroke-linecap="round"/>
</svg>
