<svg width="68" height="90" viewBox="0 0 68 90" fill="none" xmlns="http://www.w3.org/2000/svg">
<path d="M33.8947 2C27.6293 2 22.5547 7.07464 22.5547 13.34C22.5547 15.8631 23.3768 18.1878 24.766 20.0873C19.2378 23.2625 15.4672 29.1876 15.4672 36.0199C15.4672 41.775 18.1321 46.9063 22.2995 50.28C13.7946 53.2851 1.29224 66.0142 1.29224 88.4673H66.4971C66.4971 66.0142 53.9948 53.2851 45.4898 50.28C49.6572 46.9063 52.3221 41.775 52.3221 36.0199C52.3221 29.1876 48.5516 23.2625 43.0234 20.0873C44.4125 18.1878 45.2347 15.8631 45.2347 13.34C45.2347 7.07464 40.16 2 33.8947 2Z" fill="white" stroke="black" stroke-width="2.39203" stroke-linecap="round"/>
</svg>
