<svg width="109" height="99" viewBox="0 0 109 99" fill="none" xmlns="http://www.w3.org/2000/svg">
<path fill-rule="evenodd" clip-rule="evenodd" d="M13.34 20.4275C13.34 21.9312 12.7426 23.3734 11.6793 24.4368C10.6159 25.5001 9.17376 26.0975 7.66999 26.0975C6.16621 26.0975 4.72403 25.5001 3.6607 24.4368C2.59737 23.3734 2 21.9312 2 20.4275C2 18.9237 2.59737 17.4815 3.6607 16.4182C4.72403 15.3549 6.16621 14.7575 7.66999 14.7575C9.17376 14.7575 10.6159 15.3549 11.6793 16.4182C12.7426 17.4815 13.34 18.9237 13.34 20.4275Z" fill="white" stroke="black" stroke-width="2.39203" stroke-linecap="round" stroke-linejoin="round"/>
<path fill-rule="evenodd" clip-rule="evenodd" d="M60.1173 7.66999C60.1173 9.17376 59.52 10.6159 58.4566 11.6793C57.3933 12.7426 55.9511 13.34 54.4473 13.34C52.9436 13.34 51.5014 12.7426 50.438 11.6793C49.3747 10.6159 48.7773 9.17376 48.7773 7.66999C48.7773 6.16621 49.3747 4.72403 50.438 3.6607C51.5014 2.59737 52.9436 2 54.4473 2C55.9511 2 57.3933 2.59737 58.4566 3.6607C59.52 4.72403 60.1173 6.16621 60.1173 7.66999Z" fill="white" stroke="black" stroke-width="2.39203" stroke-linecap="round" stroke-linejoin="round"/>
<path fill-rule="evenodd" clip-rule="evenodd" d="M106.895 20.4275C106.895 21.9312 106.297 23.3734 105.234 24.4368C104.171 25.5001 102.729 26.0975 101.225 26.0975C99.721 26.0975 98.2788 25.5001 97.2155 24.4368C96.1522 23.3734 95.5548 21.9312 95.5548 20.4275C95.5548 18.9237 96.1522 17.4815 97.2155 16.4182C98.2788 15.3549 99.721 14.7575 101.225 14.7575C102.729 14.7575 104.171 15.3549 105.234 16.4182C106.297 17.4815 106.895 18.9237 106.895 20.4275Z" fill="white" stroke="black" stroke-width="2.39203" stroke-linecap="round" stroke-linejoin="round"/>
<path fill-rule="evenodd" clip-rule="evenodd" d="M36.0199 11.9225C36.0199 13.4262 35.4225 14.8684 34.3592 15.9317C33.2959 16.9951 31.8537 17.5925 30.3499 17.5925C28.8461 17.5925 27.404 16.9951 26.3406 15.9317C25.2773 14.8684 24.6799 13.4262 24.6799 11.9225C24.6799 10.4187 25.2773 8.9765 26.3406 7.91317C27.404 6.84985 28.8461 6.25247 30.3499 6.25247C31.8537 6.25247 33.2959 6.84985 34.3592 7.91317C35.4225 8.9765 36.0199 10.4187 36.0199 11.9225Z" fill="white" stroke="black" stroke-width="2.39203" stroke-linecap="round" stroke-linejoin="round"/>
<path fill-rule="evenodd" clip-rule="evenodd" d="M84.2149 11.9225C84.2149 13.4262 83.6175 14.8684 82.5542 15.9317C81.4908 16.9951 80.0486 17.5925 78.5449 17.5925C77.0411 17.5925 75.5989 16.9951 74.5356 15.9317C73.4722 14.8684 72.8749 13.4262 72.8749 11.9225C72.8749 10.4187 73.4722 8.9765 74.5356 7.91317C75.5989 6.84985 77.0411 6.25247 78.5449 6.25247C80.0486 6.25247 81.4908 6.84985 82.5542 7.91317C83.6175 8.9765 84.2149 10.4187 84.2149 11.9225Z" fill="white" stroke="black" stroke-width="2.39203" stroke-linecap="round" stroke-linejoin="round"/>
<path fill-rule="evenodd" clip-rule="evenodd" d="M16.175 60.1174C40.2724 55.8649 68.6224 55.8649 92.7199 60.1174L98.3898 26.0975L78.5449 57.2824V17.5925L62.9524 55.8649L54.4474 13.34L45.9424 55.8649L30.35 17.5925V57.2824L10.505 26.0975L16.175 60.1174Z" fill="white" stroke="black" stroke-width="2.39203" stroke-linejoin="round"/>
<path fill-rule="evenodd" clip-rule="evenodd" d="M16.175 60.1174C16.175 65.7874 20.4275 65.7874 23.2625 71.4573C26.0975 75.7098 26.0975 74.2923 24.68 81.3798C20.4275 84.2148 21.845 88.4673 21.845 88.4673C17.5925 92.7198 21.845 95.5548 21.845 95.5548C40.2725 98.3898 68.6224 98.3898 87.0499 95.5548C87.0499 95.5548 91.3024 92.7198 87.0499 88.4673C87.0499 88.4673 88.4674 84.2148 84.2149 81.3798C82.7974 74.2923 82.7974 75.7098 85.6324 71.4573C88.4674 65.7874 92.7199 65.7874 92.7199 60.1174C68.6224 55.8649 40.2725 55.8649 16.175 60.1174Z" fill="white" stroke="black" stroke-width="2.39203" stroke-linejoin="round"/>
<path d="M23.2625 71.4574C33.1849 68.6224 75.7098 68.6224 85.6323 71.4574" stroke="black" stroke-width="2.39203" stroke-linecap="round" stroke-linejoin="round"/>
<path d="M24.6799 81.3798C41.6899 78.5448 67.2049 78.5448 84.2148 81.3798" stroke="black" stroke-width="2.39203" stroke-linecap="round" stroke-linejoin="round"/>
</svg>
