<svg width="98" height="99" viewBox="0 0 98 99" fill="none" xmlns="http://www.w3.org/2000/svg">
<path d="M49.0957 17.961V2" stroke="black" stroke-width="2.39203" stroke-linecap="round"/>
<path d="M42.0082 7.66997H56.1832" stroke="black" stroke-width="2.39203" stroke-linecap="round"/>
<path fill-rule="evenodd" clip-rule="evenodd" d="M49.0956 55.8649C49.0956 55.8649 61.8531 34.6024 57.6006 26.0974C57.6006 26.0974 54.7656 19.0099 49.0956 19.0099C43.4256 19.0099 40.5906 26.0974 40.5906 26.0974C36.3381 34.6024 49.0956 55.8649 49.0956 55.8649Z" fill="white" stroke="black" stroke-width="2.39203"/>
<path fill-rule="evenodd" clip-rule="evenodd" d="M20.7457 89.8848C36.3382 99.8073 61.8531 99.8073 77.4456 89.8848V70.0399C77.4456 70.0399 102.961 57.2824 94.4555 40.2724C83.1156 21.845 56.1831 30.35 49.0956 51.6124V61.5349V51.6124C42.0081 30.35 15.0757 21.845 3.73571 40.2724C-4.76927 57.2824 20.7457 70.0399 20.7457 70.0399V89.8848Z" fill="white" stroke="black" stroke-width="2.39203" stroke-linecap="round" stroke-linejoin="round"/>
<path d="M20.7457 70.0399C36.3382 61.5349 61.8532 61.5349 77.4456 70.0399" stroke="black" stroke-width="2.39203" stroke-linecap="round" stroke-linejoin="round"/>
<path d="M20.7457 79.9623C36.3382 71.4574 61.8532 71.4574 77.4456 79.9623" stroke="black" stroke-width="2.39203" stroke-linecap="round" stroke-linejoin="round"/>
<path d="M20.7457 89.8848C36.3382 81.3799 61.8532 81.3799 77.4456 89.8848" stroke="black" stroke-width="2.39203" stroke-linecap="round" stroke-linejoin="round"/>
</svg>
