<svg width="80" height="89" viewBox="0 0 80 89" fill="none" xmlns="http://www.w3.org/2000/svg">
<path fill-rule="evenodd" clip-rule="evenodd" d="M2 87.1529H78.5449V78.6479H2V87.1529Z" fill="white" stroke="black" stroke-width="2.39203" stroke-linejoin="round"/>
<path fill-rule="evenodd" clip-rule="evenodd" d="M10.505 78.6479V67.3079H70.0399V78.6479H10.505Z" fill="white" stroke="black" stroke-width="2.39203" stroke-linejoin="round"/>
<path fill-rule="evenodd" clip-rule="evenodd" d="M7.66992 16.278V2.10303H19.0099V7.77302H33.1849V2.10303H47.3598V7.77302H61.5348V2.10303H72.8748V16.278" fill="white"/>
<path d="M7.66992 16.278V2.10303H19.0099V7.77302H33.1849V2.10303H47.3598V7.77302H61.5348V2.10303H72.8748V16.278" stroke="black" stroke-width="2.39203" stroke-linejoin="round"/>
<path fill-rule="evenodd" clip-rule="evenodd" d="M72.8748 16.278L64.3698 24.783H16.1749L7.66992 16.278" fill="white"/>
<path d="M72.8748 16.278L64.3698 24.783H16.1749L7.66992 16.278" stroke="black" stroke-width="2.39203" stroke-linecap="round" stroke-linejoin="round"/>
<path fill-rule="evenodd" clip-rule="evenodd" d="M64.37 24.783V60.2204H16.175V24.783" fill="white"/>
<path d="M64.37 24.783V60.2204H16.175V24.783" stroke="black" stroke-width="2.39203"/>
<path fill-rule="evenodd" clip-rule="evenodd" d="M64.3698 60.2204L68.6223 67.3079H11.9224L16.1749 60.2204" fill="white"/>
<path d="M64.3698 60.2204L68.6223 67.3079H11.9224L16.1749 60.2204" stroke="black" stroke-width="2.39203" stroke-linecap="round" stroke-linejoin="round"/>
<path d="M7.66992 16.278H72.8748" stroke="black" stroke-width="2.39203" stroke-linecap="round"/>
</svg>
