<svg width="94" height="94" viewBox="0 0 94 94" fill="none" xmlns="http://www.w3.org/2000/svg">
<path fill-rule="evenodd" clip-rule="evenodd" d="M47.3599 10.505C77.1273 13.34 94.1373 33.185 92.7198 92.7198H27.5149C27.5149 67.2049 55.8648 74.2924 50.1948 33.185" fill="white"/>
<path d="M47.3599 10.505C77.1273 13.34 94.1373 33.185 92.7198 92.7198H27.5149C27.5149 67.2049 55.8648 74.2924 50.1948 33.185" stroke="black" stroke-width="2.39203" stroke-linecap="round" stroke-linejoin="round"/>
<path fill-rule="evenodd" clip-rule="evenodd" d="M53.0299 33.1849C54.1072 41.4348 37.2957 54.0789 30.35 58.6999C21.845 64.3699 22.3553 71.0038 16.175 70.0399C13.2209 67.375 20.1723 61.4215 16.175 61.5349C13.34 61.5349 16.7136 65.0219 13.34 67.2049C10.505 67.2049 1.9915 70.0399 2.00001 55.8649C2.00001 50.1949 19.01 21.845 19.01 21.845C19.01 21.845 24.3681 16.4585 24.68 11.9225C22.6104 9.1045 23.2625 6.25249 23.2625 3.4175C26.0975 0.582503 31.7674 10.505 31.7674 10.505H37.4374C37.4374 10.505 39.6487 4.85767 44.5249 2C47.3599 2 47.3599 10.505 47.3599 10.505" fill="white"/>
<path d="M53.0299 33.1849C54.1072 41.4348 37.2957 54.0789 30.35 58.6999C21.845 64.3699 22.3553 71.0038 16.175 70.0399C13.2209 67.375 20.1723 61.4215 16.175 61.5349C13.34 61.5349 16.7136 65.0219 13.34 67.2049C10.505 67.2049 1.9915 70.0399 2.00001 55.8649C2.00001 50.1949 19.01 21.845 19.01 21.845C19.01 21.845 24.3681 16.4585 24.68 11.9225C22.6104 9.1045 23.2625 6.25249 23.2625 3.4175C26.0975 0.582503 31.7674 10.505 31.7674 10.505H37.4374C37.4374 10.505 39.6487 4.85767 44.5249 2C47.3599 2 47.3599 10.505 47.3599 10.505" stroke="black" stroke-width="2.39203" stroke-linecap="round" stroke-linejoin="round"/>
<path fill-rule="evenodd" clip-rule="evenodd" d="M11.9225 54.4474C11.9225 54.8233 11.7732 55.1839 11.5073 55.4497C11.2415 55.7156 10.881 55.8649 10.505 55.8649C10.1291 55.8649 9.76853 55.7156 9.5027 55.4497C9.23687 55.1839 9.08752 54.8233 9.08752 54.4474C9.08752 54.0715 9.23687 53.7109 9.5027 53.4451C9.76853 53.1792 10.1291 53.0299 10.505 53.0299C10.881 53.0299 11.2415 53.1792 11.5073 53.4451C11.7732 53.7109 11.9225 54.0715 11.9225 54.4474Z" fill="black" stroke="black" stroke-width="2.39203" stroke-linecap="round" stroke-linejoin="round"/>
<path fill-rule="evenodd" clip-rule="evenodd" d="M27.3251 26.8062C26.7612 27.7829 26.091 28.6449 25.4621 29.2026C24.8331 29.7604 24.2968 29.9681 23.9713 29.7801C23.6457 29.5921 23.5575 29.0239 23.726 28.2003C23.8946 27.3768 24.3061 26.3654 24.87 25.3887C25.4339 24.412 26.104 23.55 26.733 22.9923C27.362 22.4345 27.8982 22.2268 28.2238 22.4148C28.5493 22.6028 28.6376 23.171 28.469 23.9946C28.3005 24.8181 27.889 25.8295 27.3251 26.8062Z" fill="black" stroke="black" stroke-width="2.39203" stroke-linecap="round" stroke-linejoin="round"/>
</svg>
