<svg width="563" height="570" viewBox="0 0 563 570" fill="none" xmlns="http://www.w3.org/2000/svg">
<g filter="url(#filter0_f_1_425)">
<path d="M62.415 557.478C63.1785 557.478 63.7639 557.645 64.1711 557.977C64.5783 558.31 64.7819 558.815 64.7819 559.494V563.286H63.6977L63.3974 562.513H63.3567C63.1938 562.716 63.0275 562.882 62.8578 563.011C62.6881 563.14 62.493 563.235 62.2725 563.296C62.0519 563.358 61.7838 563.388 61.4682 563.388C61.1323 563.388 60.8302 563.324 60.5622 563.195C60.2975 563.066 60.0888 562.869 59.9361 562.604C59.7834 562.336 59.707 561.997 59.707 561.586C59.707 560.982 59.9191 560.538 60.3433 560.253C60.7675 559.964 61.4037 559.805 62.2521 559.774L63.2396 559.743V559.494C63.2396 559.195 63.1615 558.977 63.0054 558.837C62.8493 558.698 62.6322 558.629 62.3539 558.629C62.079 558.629 61.8092 558.668 61.5446 558.746C61.2799 558.824 61.0152 558.922 60.7505 559.041L60.2364 557.992C60.5384 557.833 60.876 557.707 61.2493 557.616C61.626 557.524 62.0145 557.478 62.415 557.478ZM63.2396 560.65L62.6389 560.67C62.1367 560.683 61.7872 560.773 61.5904 560.94C61.3969 561.106 61.3002 561.325 61.3002 561.596C61.3002 561.834 61.3698 562.004 61.5089 562.105C61.6481 562.204 61.8296 562.253 62.0536 562.253C62.3861 562.253 62.6661 562.155 62.8935 561.958C63.1242 561.761 63.2396 561.481 63.2396 561.118V560.65Z" fill="white" fill-opacity="0.25"/>
<path d="M62.415 10.1833C63.1785 10.1833 63.7639 10.3495 64.1711 10.6821C64.5783 11.0146 64.7819 11.5203 64.7819 12.199V15.9911H63.6977L63.3974 15.2174H63.3567C63.1938 15.421 63.0275 15.5873 62.8578 15.7163C62.6881 15.8452 62.493 15.9402 62.2725 16.0013C62.0519 16.0624 61.7838 16.0929 61.4682 16.0929C61.1323 16.0929 60.8302 16.0285 60.5622 15.8995C60.2975 15.7706 60.0888 15.5737 59.9361 15.3091C59.7834 15.041 59.707 14.7016 59.707 14.291C59.707 13.687 59.9191 13.2424 60.3433 12.9574C60.7675 12.669 61.4037 12.5095 62.2521 12.4789L63.2396 12.4484V12.199C63.2396 11.9003 63.1615 11.6815 63.0054 11.5423C62.8493 11.4032 62.6322 11.3336 62.3539 11.3336C62.079 11.3336 61.8092 11.3727 61.5446 11.4507C61.2799 11.5288 61.0152 11.6272 60.7505 11.7459L60.2364 10.6974C60.5384 10.5379 60.876 10.4123 61.2493 10.3207C61.626 10.2291 62.0145 10.1833 62.415 10.1833ZM63.2396 13.3544L62.6389 13.3748C62.1367 13.3884 61.7872 13.4783 61.5904 13.6446C61.3969 13.8108 61.3002 14.0297 61.3002 14.3012C61.3002 14.5387 61.3698 14.7084 61.5089 14.8102C61.6481 14.9086 61.8296 14.9578 62.0536 14.9578C62.3861 14.9578 62.6661 14.8594 62.8935 14.6626C63.1242 14.4658 63.2396 14.1858 63.2396 13.8227V13.3544Z" fill="white" fill-opacity="0.25"/>
<path d="M7.19055 63.1821C7.61812 63.1821 8.01176 63.2483 8.37147 63.3806C8.73457 63.513 9.02471 63.7132 9.24189 63.9813C9.45907 64.246 9.56766 64.5785 9.56766 64.9789C9.56766 65.2776 9.50827 65.5389 9.3895 65.7628C9.27412 65.9868 9.11633 66.1836 8.91612 66.3533C8.7159 66.5196 8.48854 66.6655 8.23403 66.791C8.49872 66.9302 8.74984 67.0931 8.98738 67.2797C9.22492 67.4629 9.41835 67.6784 9.56766 67.9261C9.72036 68.1739 9.79671 68.4623 9.79671 68.7915C9.79671 69.2055 9.68643 69.5652 9.46585 69.8706C9.24528 70.1726 8.93987 70.4068 8.54962 70.573C8.15938 70.7393 7.70635 70.8224 7.19055 70.8224C6.63402 70.8224 6.16064 70.7427 5.77039 70.5832C5.38014 70.4237 5.08322 70.1964 4.87961 69.9011C4.676 69.6025 4.5742 69.2462 4.5742 68.8322C4.5742 68.4928 4.63698 68.1976 4.76254 67.9465C4.89149 67.6954 5.06455 67.4799 5.28173 67.3001C5.49891 67.1168 5.73815 66.9607 5.99945 66.8318C5.77887 66.6926 5.57696 66.5348 5.39372 66.3584C5.21387 66.1819 5.06964 65.98 4.96105 65.7526C4.85586 65.5253 4.80326 65.264 4.80326 64.9688C4.80326 64.5751 4.91355 64.246 5.13412 63.9813C5.35809 63.7166 5.65162 63.5181 6.01472 63.3857C6.37782 63.25 6.76976 63.1821 7.19055 63.1821ZM6.02999 68.7406C6.02999 69.0087 6.12501 69.2309 6.31504 69.4074C6.50847 69.5804 6.79351 69.667 7.17019 69.667C7.56043 69.667 7.85227 69.5838 8.0457 69.4176C8.23912 69.2479 8.33584 69.0256 8.33584 68.7508C8.33584 68.5607 8.27984 68.3944 8.16786 68.2519C8.05927 68.1094 7.92184 67.9821 7.75556 67.8702C7.58928 67.7548 7.4213 67.6479 7.25163 67.5495L7.1142 67.4782C6.89701 67.5766 6.70698 67.6869 6.5441 67.8091C6.3846 67.9312 6.25905 68.0687 6.16742 68.2214C6.0758 68.3741 6.02999 68.5471 6.02999 68.7406ZM7.18037 64.3325C6.92247 64.3325 6.70868 64.3987 6.53901 64.531C6.36933 64.6633 6.2845 64.85 6.2845 65.0909C6.2845 65.2606 6.32522 65.4099 6.40666 65.5389C6.4915 65.6644 6.60179 65.7747 6.73752 65.8697C6.87665 65.9647 7.02766 66.053 7.19055 66.1344C7.34665 66.0597 7.49256 65.9766 7.6283 65.885C7.76404 65.7934 7.87433 65.6831 7.95916 65.5541C8.044 65.4252 8.08642 65.2708 8.08642 65.0909C8.08642 64.85 7.99988 64.6633 7.82682 64.531C7.65715 64.3987 7.44166 64.3325 7.18037 64.3325Z" fill="white" fill-opacity="0.25"/>
<path d="M555.528 63.1821C555.956 63.1821 556.349 63.2483 556.709 63.3806C557.072 63.513 557.362 63.7132 557.579 63.9813C557.796 64.246 557.905 64.5785 557.905 64.9789C557.905 65.2776 557.846 65.5389 557.727 65.7628C557.612 65.9868 557.454 66.1836 557.254 66.3533C557.053 66.5196 556.826 66.6655 556.571 66.791C556.836 66.9302 557.087 67.0931 557.325 67.2797C557.562 67.4629 557.756 67.6784 557.905 67.9261C558.058 68.1739 558.134 68.4623 558.134 68.7915C558.134 69.2055 558.024 69.5652 557.803 69.8706C557.583 70.1726 557.277 70.4068 556.887 70.573C556.497 70.7393 556.044 70.8224 555.528 70.8224C554.971 70.8224 554.498 70.7427 554.108 70.5832C553.718 70.4237 553.421 70.1964 553.217 69.9011C553.013 69.6025 552.912 69.2462 552.912 68.8322C552.912 68.4928 552.974 68.1976 553.1 67.9465C553.229 67.6954 553.402 67.4799 553.619 67.3001C553.836 67.1168 554.076 66.9607 554.337 66.8318C554.116 66.6926 553.914 66.5348 553.731 66.3584C553.551 66.1819 553.407 65.98 553.298 65.7526C553.193 65.5253 553.141 65.264 553.141 64.9688C553.141 64.5751 553.251 64.246 553.472 63.9813C553.695 63.7166 553.989 63.5181 554.352 63.3857C554.715 63.25 555.107 63.1821 555.528 63.1821ZM554.367 68.7406C554.367 69.0087 554.462 69.2309 554.652 69.4074C554.846 69.5804 555.131 69.667 555.508 69.667C555.898 69.667 556.19 69.5838 556.383 69.4176C556.577 69.2479 556.673 69.0256 556.673 68.7508C556.673 68.5607 556.617 68.3944 556.505 68.2519C556.397 68.1094 556.259 67.9821 556.093 67.8702C555.927 67.7548 555.759 67.6479 555.589 67.5495L555.452 67.4782C555.234 67.5766 555.044 67.6869 554.882 67.8091C554.722 67.9312 554.596 68.0687 554.505 68.2214C554.413 68.3741 554.367 68.5471 554.367 68.7406ZM555.518 64.3325C555.26 64.3325 555.046 64.3987 554.876 64.531C554.707 64.6633 554.622 64.85 554.622 65.0909C554.622 65.2606 554.663 65.4099 554.744 65.5389C554.829 65.6644 554.939 65.7747 555.075 65.8697C555.214 65.9647 555.365 66.053 555.528 66.1344C555.684 66.0597 555.83 65.9766 555.966 65.885C556.101 65.7934 556.212 65.6831 556.297 65.5541C556.381 65.4252 556.424 65.2708 556.424 65.0909C556.424 64.85 556.337 64.6633 556.164 64.531C555.995 64.3987 555.779 64.3325 555.518 64.3325Z" fill="white" fill-opacity="0.25"/>
<path d="M9.99523 319.37H9.09936V320.913H7.56213V319.37H4.38586V318.276L7.64866 313.471H9.09936V318.149H9.99523V319.37ZM7.56213 318.149V316.886C7.56213 316.768 7.56383 316.627 7.56722 316.464C7.57401 316.301 7.58079 316.138 7.58758 315.975C7.59437 315.812 7.60116 315.668 7.60794 315.543C7.61812 315.414 7.62491 315.324 7.6283 315.273H7.58758C7.52311 315.412 7.45524 315.548 7.38397 315.68C7.31271 315.809 7.22957 315.945 7.13456 316.087L5.77039 318.149H7.56213Z" fill="white" fill-opacity="0.25"/>
<path d="M558.333 319.37H557.437V320.913H555.9V319.37H552.723V318.276L555.986 313.471H557.437V318.149H558.333V319.37ZM555.9 318.149V316.886C555.9 316.768 555.901 316.627 555.905 316.464C555.911 316.301 555.918 316.138 555.925 315.975C555.932 315.812 555.939 315.668 555.945 315.543C555.956 315.414 555.962 315.324 555.966 315.273H555.925C555.861 315.412 555.793 315.548 555.721 315.68C555.65 315.809 555.567 315.945 555.472 316.087L554.108 318.149H555.9Z" fill="white" fill-opacity="0.25"/>
<path d="M5.36318 133.269L8.15768 127.15H4.48767V125.827H9.82726V126.814L7.01239 133.269H5.36318Z" fill="white" fill-opacity="0.25"/>
<path d="M553.701 133.269L556.495 127.15H552.825V125.827H558.165V126.814L555.35 133.269H553.701Z" fill="white" fill-opacity="0.25"/>
<path d="M9.53712 377.683C9.53712 378.026 9.46585 378.323 9.32333 378.574C9.1808 378.825 8.98738 379.031 8.74305 379.19C8.50212 379.35 8.23064 379.467 7.92862 379.541V379.572C8.52587 379.646 8.97889 379.83 9.2877 380.122C9.59989 380.413 9.75599 380.804 9.75599 381.292C9.75599 381.727 9.6491 382.115 9.43531 382.458C9.22492 382.801 8.89915 383.07 8.458 383.267C8.01685 383.464 7.44845 383.562 6.75279 383.562C6.34219 383.562 5.95873 383.529 5.60242 383.461C5.2495 383.396 4.91694 383.296 4.60474 383.16V381.822C4.92373 381.985 5.25798 382.108 5.60751 382.193C5.95703 382.275 6.2828 382.315 6.58482 382.315C7.14813 382.315 7.54177 382.219 7.76574 382.025C7.9931 381.828 8.10678 381.554 8.10678 381.201C8.10678 380.994 8.05418 380.819 7.94898 380.676C7.84379 380.534 7.66054 380.425 7.39924 380.351C7.14134 380.276 6.77994 380.239 6.31504 380.239H5.75003V379.032H6.32522C6.78333 379.032 7.13116 378.99 7.3687 378.905C7.60964 378.817 7.77252 378.698 7.85736 378.549C7.94559 378.396 7.9897 378.223 7.9897 378.029C7.9897 377.765 7.90826 377.558 7.74538 377.408C7.58249 377.259 7.31102 377.184 6.93095 377.184C6.69341 377.184 6.47623 377.215 6.27941 377.276C6.08598 377.334 5.91122 377.405 5.75512 377.49C5.59902 377.571 5.46159 377.651 5.34282 377.729L4.61492 376.645C4.90676 376.435 5.2478 376.26 5.63805 376.121C6.03169 375.982 6.49998 375.912 7.04293 375.912C7.80985 375.912 8.41728 376.066 8.86521 376.375C9.31315 376.684 9.53712 377.12 9.53712 377.683Z" fill="white" fill-opacity="0.25"/>
<path d="M557.875 377.683C557.875 378.026 557.803 378.323 557.661 378.574C557.518 378.825 557.325 379.031 557.08 379.19C556.84 379.35 556.568 379.467 556.266 379.541V379.572C556.863 379.646 557.316 379.83 557.625 380.122C557.937 380.413 558.093 380.804 558.093 381.292C558.093 381.727 557.987 382.115 557.773 382.458C557.562 382.801 557.237 383.07 556.795 383.267C556.354 383.464 555.786 383.562 555.09 383.562C554.68 383.562 554.296 383.529 553.94 383.461C553.587 383.396 553.254 383.296 552.942 383.16V381.822C553.261 381.985 553.595 382.108 553.945 382.193C554.294 382.275 554.62 382.315 554.922 382.315C555.486 382.315 555.879 382.219 556.103 382.025C556.331 381.828 556.444 381.554 556.444 381.201C556.444 380.994 556.392 380.819 556.286 380.676C556.181 380.534 555.998 380.425 555.737 380.351C555.479 380.276 555.117 380.239 554.652 380.239H554.087V379.032H554.663C555.121 379.032 555.469 378.99 555.706 378.905C555.947 378.817 556.11 378.698 556.195 378.549C556.283 378.396 556.327 378.223 556.327 378.029C556.327 377.765 556.246 377.558 556.083 377.408C555.92 377.259 555.648 377.184 555.268 377.184C555.031 377.184 554.814 377.215 554.617 377.276C554.423 377.334 554.249 377.405 554.093 377.49C553.936 377.571 553.799 377.651 553.68 377.729L552.952 376.645C553.244 376.435 553.585 376.26 553.975 376.121C554.369 375.982 554.837 375.912 555.38 375.912C556.147 375.912 556.755 376.066 557.203 376.375C557.651 376.684 557.875 377.12 557.875 377.683Z" fill="white" fill-opacity="0.25"/>
<path d="M4.5742 192.656C4.5742 192.228 4.60474 191.806 4.66582 191.388C4.7303 190.967 4.84059 190.572 4.99668 190.202C5.15278 189.829 5.37166 189.5 5.65332 189.215C5.93497 188.926 6.29298 188.701 6.72734 188.538C7.1617 188.371 7.68769 188.288 8.3053 188.288C8.45121 188.288 8.62089 188.295 8.81431 188.309C9.01113 188.319 9.17402 188.338 9.30297 188.365V189.622C9.16723 189.591 9.02131 189.568 8.86521 189.551C8.71251 189.53 8.5598 189.52 8.4071 189.52C7.78949 189.52 7.31102 189.619 6.97167 189.815C6.63572 190.012 6.39818 190.285 6.25905 190.635C6.12331 190.981 6.04356 191.385 6.01981 191.846H6.08598C6.181 191.68 6.29977 191.532 6.44229 191.403C6.58821 191.275 6.76467 191.173 6.97167 191.098C7.17867 191.02 7.4213 190.981 7.69956 190.981C8.13393 190.981 8.5106 191.074 8.82958 191.261C9.14857 191.444 9.39459 191.711 9.56766 192.06C9.74072 192.41 9.82726 192.836 9.82726 193.338C9.82726 193.874 9.72376 194.335 9.51676 194.722C9.30976 195.109 9.01622 195.406 8.63616 195.613C8.25948 195.817 7.81155 195.918 7.29235 195.918C6.91229 195.918 6.55767 195.854 6.22851 195.725C5.89934 195.593 5.6109 195.392 5.36318 195.124C5.11546 194.856 4.92203 194.519 4.7829 194.111C4.64377 193.701 4.5742 193.216 4.5742 192.656ZM7.26181 194.661C7.57061 194.661 7.82173 194.556 8.01516 194.346C8.20858 194.135 8.3053 193.806 8.3053 193.358C8.3053 192.995 8.22046 192.71 8.05079 192.503C7.88451 192.293 7.6317 192.187 7.29235 192.187C7.0616 192.187 6.85799 192.24 6.68153 192.345C6.50847 192.447 6.37442 192.578 6.27941 192.737C6.18439 192.893 6.13688 193.054 6.13688 193.221C6.13688 193.394 6.16064 193.565 6.20815 193.735C6.25565 193.904 6.32692 194.059 6.42193 194.198C6.51695 194.337 6.63402 194.449 6.77315 194.534C6.91568 194.619 7.07856 194.661 7.26181 194.661Z" fill="white" fill-opacity="0.25"/>
<path d="M552.912 192.656C552.912 192.228 552.942 191.806 553.003 191.388C553.068 190.967 553.178 190.572 553.334 190.202C553.49 189.829 553.709 189.5 553.991 189.215C554.272 188.926 554.63 188.701 555.065 188.538C555.499 188.371 556.025 188.288 556.643 188.288C556.789 188.288 556.958 188.295 557.152 188.309C557.349 188.319 557.511 188.338 557.64 188.365V189.622C557.505 189.591 557.359 189.568 557.203 189.551C557.05 189.53 556.897 189.52 556.745 189.52C556.127 189.52 555.648 189.619 555.309 189.815C554.973 190.012 554.736 190.285 554.596 190.635C554.461 190.981 554.381 191.385 554.357 191.846H554.423C554.518 191.68 554.637 191.532 554.78 191.403C554.926 191.275 555.102 191.173 555.309 191.098C555.516 191.02 555.759 190.981 556.037 190.981C556.471 190.981 556.848 191.074 557.167 191.261C557.486 191.444 557.732 191.711 557.905 192.06C558.078 192.41 558.165 192.836 558.165 193.338C558.165 193.874 558.061 194.335 557.854 194.722C557.647 195.109 557.354 195.406 556.974 195.613C556.597 195.817 556.149 195.918 555.63 195.918C555.25 195.918 554.895 195.854 554.566 195.725C554.237 195.593 553.948 195.392 553.701 195.124C553.453 194.856 553.259 194.519 553.12 194.111C552.981 193.701 552.912 193.216 552.912 192.656ZM555.599 194.661C555.908 194.661 556.159 194.556 556.353 194.346C556.546 194.135 556.643 193.806 556.643 193.358C556.643 192.995 556.558 192.71 556.388 192.503C556.222 192.293 555.969 192.187 555.63 192.187C555.399 192.187 555.195 192.24 555.019 192.345C554.846 192.447 554.712 192.578 554.617 192.737C554.522 192.893 554.474 193.054 554.474 193.221C554.474 193.394 554.498 193.565 554.546 193.735C554.593 193.904 554.664 194.059 554.759 194.198C554.854 194.337 554.971 194.449 555.111 194.534C555.253 194.619 555.416 194.661 555.599 194.661Z" fill="white" fill-opacity="0.25"/>
<path d="M9.82726 446.009H4.6251V444.914L6.49319 443.026C6.86987 442.639 7.17188 442.317 7.39924 442.059C7.63 441.797 7.79628 441.56 7.89808 441.346C8.00328 441.132 8.05588 440.903 8.05588 440.659C8.05588 440.364 7.97274 440.143 7.80646 439.997C7.64357 439.848 7.4247 439.773 7.14983 439.773C6.86138 439.773 6.58142 439.839 6.30995 439.972C6.03847 440.104 5.75512 440.292 5.45989 440.537L4.60474 439.524C4.81853 439.341 5.04419 439.168 5.28173 439.005C5.52267 438.842 5.80093 438.711 6.11652 438.613C6.43551 438.511 6.81727 438.46 7.26181 438.46C7.75047 438.46 8.16956 438.548 8.51908 438.725C8.872 438.901 9.14348 439.142 9.33351 439.447C9.52354 439.749 9.61856 440.092 9.61856 440.476C9.61856 440.886 9.53712 441.261 9.37423 441.601C9.21135 441.94 8.9738 442.276 8.66161 442.608C8.3528 442.941 7.97952 443.309 7.54177 443.713L6.58482 444.614V444.685H9.82726V446.009Z" fill="white" fill-opacity="0.25"/>
<path d="M558.165 446.009H552.963V444.914L554.831 443.026C555.207 442.639 555.509 442.317 555.737 442.059C555.967 441.797 556.134 441.56 556.235 441.346C556.341 441.132 556.393 440.903 556.393 440.659C556.393 440.364 556.31 440.143 556.144 439.997C555.981 439.848 555.762 439.773 555.487 439.773C555.199 439.773 554.919 439.839 554.647 439.972C554.376 440.104 554.093 440.292 553.797 440.537L552.942 439.524C553.156 439.341 553.382 439.168 553.619 439.005C553.86 438.842 554.138 438.711 554.454 438.613C554.773 438.511 555.155 438.46 555.599 438.46C556.088 438.46 556.507 438.548 556.856 438.725C557.209 438.901 557.481 439.142 557.671 439.447C557.861 439.749 557.956 440.092 557.956 440.476C557.956 440.886 557.875 441.261 557.712 441.601C557.549 441.94 557.311 442.276 556.999 442.608C556.69 442.941 556.317 443.309 555.879 443.713L554.922 444.614V444.685H558.165V446.009Z" fill="white" fill-opacity="0.25"/>
<path d="M7.33307 253.61C7.78779 253.61 8.19161 253.697 8.54453 253.87C8.90084 254.043 9.1808 254.298 9.38441 254.634C9.58802 254.97 9.68982 255.384 9.68982 255.876C9.68982 256.412 9.57784 256.875 9.35387 257.265C9.1333 257.652 8.80244 257.949 8.36129 258.156C7.92353 258.363 7.37719 258.466 6.72225 258.466C6.33201 258.466 5.96382 258.433 5.61769 258.365C5.27495 258.3 4.97463 258.2 4.71673 258.064V256.705C4.97463 256.841 5.28343 256.956 5.64314 257.051C6.00624 257.143 6.34728 257.189 6.66626 257.189C6.97846 257.189 7.24145 257.148 7.45524 257.067C7.66902 256.982 7.83021 256.853 7.9388 256.68C8.05079 256.503 8.10678 256.279 8.10678 256.008C8.10678 255.645 7.98461 255.367 7.74029 255.173C7.49596 254.98 7.12098 254.883 6.61536 254.883C6.42193 254.883 6.22002 254.902 6.00963 254.939C5.80263 254.976 5.62956 255.014 5.49043 255.051L4.86434 254.715L5.1443 250.923H9.1808V252.256H6.52374L6.3863 253.717C6.50168 253.694 6.62724 253.67 6.76297 253.646C6.89871 253.622 7.08874 253.61 7.33307 253.61Z" fill="white" fill-opacity="0.25"/>
<path d="M555.67 253.61C556.125 253.61 556.529 253.697 556.882 253.87C557.238 254.043 557.518 254.298 557.722 254.634C557.925 254.97 558.027 255.384 558.027 255.876C558.027 256.412 557.915 256.875 557.691 257.265C557.471 257.652 557.14 257.949 556.699 258.156C556.261 258.363 555.715 258.466 555.06 258.466C554.669 258.466 554.301 258.433 553.955 258.365C553.612 258.3 553.312 258.2 553.054 258.064V256.705C553.312 256.841 553.621 256.956 553.981 257.051C554.344 257.143 554.685 257.189 555.004 257.189C555.316 257.189 555.579 257.148 555.793 257.067C556.006 256.982 556.168 256.853 556.276 256.68C556.388 256.503 556.444 256.279 556.444 256.008C556.444 255.645 556.322 255.367 556.078 255.173C555.833 254.98 555.458 254.883 554.953 254.883C554.759 254.883 554.557 254.902 554.347 254.939C554.14 254.976 553.967 255.014 553.828 255.051L553.202 254.715L553.482 250.923H557.518V252.256H554.861L554.724 253.717C554.839 253.694 554.965 253.67 555.1 253.646C555.236 253.622 555.426 253.61 555.67 253.61Z" fill="white" fill-opacity="0.25"/>
<path d="M8.51399 508.557H6.94113V504.25C6.94113 504.132 6.94283 503.986 6.94622 503.813C6.94961 503.636 6.9547 503.456 6.96149 503.273C6.96828 503.086 6.97506 502.918 6.98185 502.769C6.94452 502.813 6.86817 502.89 6.75279 502.998C6.64081 503.103 6.53561 503.198 6.4372 503.283L5.58205 503.97L4.82362 503.024L7.22109 501.115H8.51399V508.557Z" fill="white" fill-opacity="0.25"/>
<path d="M556.851 508.557H555.279V504.25C555.279 504.132 555.28 503.986 555.284 503.813C555.287 503.636 555.292 503.456 555.299 503.273C555.306 503.086 555.312 502.918 555.319 502.769C555.282 502.813 555.206 502.89 555.09 502.998C554.978 503.103 554.873 503.198 554.775 503.283L553.919 503.97L553.161 503.024L555.558 501.115H556.851V508.557Z" fill="white" fill-opacity="0.25"/>
<path d="M124.037 555.366V557.209C124.037 557.422 124.03 557.634 124.016 557.845C124.006 558.055 123.992 558.218 123.975 558.334H124.037C124.186 558.099 124.389 557.901 124.647 557.738C124.905 557.572 125.24 557.489 125.65 557.489C126.288 557.489 126.806 557.738 127.203 558.237C127.6 558.736 127.798 559.467 127.798 560.431C127.798 561.079 127.707 561.623 127.523 562.065C127.34 562.502 127.084 562.833 126.755 563.057C126.426 563.278 126.044 563.388 125.609 563.388C125.192 563.388 124.863 563.313 124.622 563.164C124.381 563.015 124.186 562.847 124.037 562.66H123.93L123.67 563.286H122.484V555.366H124.037ZM125.151 558.731C124.88 558.731 124.664 558.787 124.505 558.899C124.345 559.011 124.228 559.178 124.154 559.402C124.082 559.626 124.043 559.91 124.037 560.253V560.42C124.037 560.974 124.118 561.398 124.281 561.693C124.444 561.985 124.741 562.131 125.172 562.131C125.491 562.131 125.743 561.983 125.93 561.688C126.12 561.393 126.215 560.967 126.215 560.41C126.215 559.854 126.12 559.435 125.93 559.153C125.74 558.871 125.48 558.731 125.151 558.731Z" fill="white" fill-opacity="0.25"/>
<path d="M124.037 8.07083V9.91347C124.037 10.1273 124.03 10.3393 124.016 10.5497C124.006 10.7601 123.992 10.923 123.975 11.0384H124.037C124.186 10.8043 124.389 10.6057 124.647 10.4428C124.905 10.2766 125.24 10.1934 125.65 10.1934C126.288 10.1934 126.806 10.4428 127.203 10.9417C127.6 11.4405 127.798 12.1718 127.798 13.1355C127.798 13.7837 127.707 14.3283 127.523 14.7695C127.34 15.2072 127.084 15.5381 126.755 15.7621C126.426 15.9827 126.044 16.0929 125.609 16.0929C125.192 16.0929 124.863 16.0183 124.622 15.869C124.381 15.7197 124.186 15.5517 124.037 15.365H123.93L123.67 15.9911H122.484V8.07083H124.037ZM125.151 11.4354C124.88 11.4354 124.664 11.4914 124.505 11.6034C124.345 11.7154 124.228 11.8834 124.154 12.1073C124.082 12.3313 124.043 12.6147 124.037 12.9574V13.1254C124.037 13.6785 124.118 14.1027 124.281 14.3979C124.444 14.6897 124.741 14.8357 125.172 14.8357C125.491 14.8357 125.743 14.6881 125.93 14.3928C126.12 14.0976 126.215 13.6717 126.215 13.1152C126.215 12.5587 126.12 12.1396 125.93 11.8579C125.74 11.5763 125.48 11.4354 125.151 11.4354Z" fill="white" fill-opacity="0.25"/>
<path d="M187.98 563.388C187.417 563.388 186.937 563.286 186.54 563.083C186.143 562.876 185.841 562.557 185.634 562.126C185.427 561.695 185.323 561.143 185.323 560.471C185.323 559.776 185.44 559.209 185.674 558.771C185.912 558.33 186.239 558.006 186.657 557.799C187.077 557.592 187.564 557.489 188.118 557.489C188.511 557.489 188.851 557.528 189.136 557.606C189.424 557.68 189.675 557.77 189.889 557.875L189.431 559.077C189.187 558.978 188.959 558.899 188.749 558.837C188.538 558.773 188.328 558.741 188.118 558.741C187.846 558.741 187.62 558.805 187.441 558.934C187.261 559.06 187.127 559.25 187.038 559.504C186.95 559.759 186.906 560.078 186.906 560.461C186.906 560.838 186.954 561.15 187.049 561.398C187.144 561.646 187.281 561.83 187.461 561.953C187.641 562.071 187.86 562.131 188.118 562.131C188.44 562.131 188.727 562.088 188.978 562.004C189.229 561.915 189.473 561.793 189.711 561.637V562.966C189.473 563.115 189.224 563.222 188.963 563.286C188.705 563.354 188.377 563.388 187.98 563.388Z" fill="white" fill-opacity="0.25"/>
<path d="M187.98 16.0929C187.417 16.0929 186.937 15.9911 186.54 15.7875C186.143 15.5805 185.841 15.2615 185.634 14.8306C185.427 14.3996 185.323 13.8482 185.323 13.1763C185.323 12.4806 185.44 11.9139 185.674 11.4762C185.912 11.035 186.239 10.7109 186.657 10.5039C187.077 10.2969 187.564 10.1934 188.118 10.1934C188.511 10.1934 188.851 10.2325 189.136 10.3105C189.424 10.3852 189.675 10.4751 189.889 10.5803L189.431 11.7816C189.187 11.6832 188.959 11.6034 188.749 11.5423C188.538 11.4779 188.328 11.4456 188.118 11.4456C187.846 11.4456 187.62 11.5101 187.441 11.639C187.261 11.7646 187.127 11.9546 187.038 12.2091C186.95 12.4636 186.906 12.7826 186.906 13.1661C186.906 13.5428 186.954 13.855 187.049 14.1027C187.144 14.3504 187.281 14.5353 187.461 14.6575C187.641 14.7763 187.86 14.8357 188.118 14.8357C188.44 14.8357 188.727 14.7932 188.978 14.7084C189.229 14.6202 189.473 14.498 189.711 14.3419V15.6705C189.473 15.8198 189.224 15.9267 188.963 15.9911C188.705 16.059 188.377 16.0929 187.98 16.0929Z" fill="white" fill-opacity="0.25"/>
<path d="M249.382 563.388C248.747 563.388 248.23 563.14 247.83 562.645C247.432 562.146 247.234 561.415 247.234 560.451C247.234 559.477 247.436 558.741 247.84 558.242C248.244 557.74 248.771 557.489 249.423 557.489C249.694 557.489 249.933 557.526 250.14 557.601C250.347 557.675 250.526 557.775 250.675 557.901C250.828 558.026 250.957 558.167 251.062 558.323H251.113C251.092 558.215 251.067 558.055 251.036 557.845C251.009 557.631 250.996 557.412 250.996 557.188V555.366H252.553V563.286H251.362L251.062 562.548H250.996C250.897 562.704 250.773 562.847 250.624 562.976C250.478 563.101 250.303 563.201 250.1 563.276C249.896 563.351 249.657 563.388 249.382 563.388ZM249.927 562.151C250.351 562.151 250.649 562.026 250.823 561.774C250.999 561.52 251.092 561.138 251.102 560.629V560.461C251.102 559.908 251.018 559.486 250.848 559.194C250.678 558.899 250.363 558.751 249.901 558.751C249.558 558.751 249.29 558.899 249.097 559.194C248.904 559.489 248.807 559.915 248.807 560.471C248.807 561.028 248.904 561.447 249.097 561.729C249.294 562.01 249.57 562.151 249.927 562.151Z" fill="white" fill-opacity="0.25"/>
<path d="M249.382 16.0929C248.747 16.0929 248.23 15.8452 247.83 15.3498C247.432 14.8509 247.234 14.1196 247.234 13.1559C247.234 12.182 247.436 11.4456 247.84 10.9468C248.244 10.4445 248.771 10.1934 249.423 10.1934C249.694 10.1934 249.933 10.2308 250.14 10.3054C250.347 10.3801 250.526 10.4802 250.675 10.6057C250.828 10.7313 250.957 10.8721 251.062 11.0282H251.113C251.092 10.9196 251.067 10.7601 251.036 10.5497C251.009 10.336 250.996 10.1171 250.996 9.89311V8.07083H252.553V15.9911H251.362L251.062 15.2531H250.996C250.897 15.4092 250.773 15.5517 250.624 15.6806C250.478 15.8062 250.303 15.9063 250.1 15.981C249.896 16.0556 249.657 16.0929 249.382 16.0929ZM249.927 14.856C250.351 14.856 250.649 14.7305 250.823 14.4794C250.999 14.2248 251.092 13.8431 251.102 13.3341V13.1661C251.102 12.613 251.018 12.1905 250.848 11.8986C250.678 11.6034 250.363 11.4558 249.901 11.4558C249.558 11.4558 249.29 11.6034 249.097 11.8986C248.904 12.1939 248.807 12.6197 248.807 13.1763C248.807 13.7328 248.904 14.1519 249.097 14.4335C249.294 14.7152 249.57 14.856 249.927 14.856Z" fill="white" fill-opacity="0.25"/>
<path d="M312.693 557.489C313.219 557.489 313.672 557.59 314.053 557.794C314.433 557.994 314.726 558.286 314.933 558.669C315.14 559.053 315.244 559.521 315.244 560.074V560.828H311.574C311.591 561.265 311.721 561.61 311.966 561.861C312.213 562.109 312.556 562.233 312.994 562.233C313.357 562.233 313.689 562.195 313.991 562.121C314.293 562.046 314.604 561.934 314.923 561.785V562.986C314.641 563.125 314.346 563.227 314.037 563.291C313.732 563.356 313.36 563.388 312.923 563.388C312.352 563.388 311.847 563.283 311.406 563.072C310.968 562.862 310.623 562.541 310.372 562.11C310.125 561.679 310.001 561.137 310.001 560.482C310.001 559.816 310.113 559.263 310.337 558.822C310.564 558.378 310.88 558.045 311.283 557.825C311.687 557.601 312.157 557.489 312.693 557.489ZM312.704 558.593C312.402 558.593 312.151 558.69 311.95 558.883C311.753 559.077 311.64 559.38 311.609 559.794H313.788C313.784 559.564 313.742 559.358 313.661 559.178C313.583 558.999 313.464 558.856 313.304 558.751C313.148 558.646 312.948 558.593 312.704 558.593Z" fill="white" fill-opacity="0.25"/>
<path d="M312.693 10.1934C313.219 10.1934 313.672 10.2952 314.053 10.4988C314.433 10.6991 314.726 10.9909 314.933 11.3744C315.14 11.7578 315.244 12.2261 315.244 12.7792V13.5326H311.574C311.591 13.9703 311.721 14.3148 311.966 14.5659C312.213 14.8136 312.556 14.9375 312.994 14.9375C313.357 14.9375 313.689 14.9001 313.991 14.8255C314.293 14.7508 314.604 14.6388 314.923 14.4895V15.6908C314.641 15.8299 314.346 15.9317 314.037 15.9962C313.732 16.0607 313.36 16.0929 312.923 16.0929C312.352 16.0929 311.847 15.9877 311.406 15.7773C310.968 15.567 310.623 15.2463 310.372 14.8153C310.125 14.3843 310.001 13.8414 310.001 13.1865C310.001 12.5213 310.113 11.9682 310.337 11.5271C310.564 11.0825 310.88 10.75 311.283 10.5294C311.687 10.3054 312.157 10.1934 312.693 10.1934ZM312.704 11.298C312.402 11.298 312.151 11.3947 311.95 11.5881C311.753 11.7816 311.64 12.0853 311.609 12.4993H313.788C313.784 12.2685 313.742 12.0632 313.661 11.8834C313.583 11.7035 313.464 11.561 313.304 11.4558C313.148 11.3506 312.948 11.298 312.704 11.298Z" fill="white" fill-opacity="0.25"/>
<path d="M377.142 558.761H375.798V563.286H374.246V558.761H373.39V558.013L374.246 557.595V557.178C374.246 556.693 374.327 556.316 374.49 556.048C374.656 555.777 374.889 555.587 375.187 555.478C375.489 555.366 375.846 555.31 376.256 555.31C376.558 555.31 376.833 555.335 377.081 555.386C377.328 555.434 377.53 555.488 377.686 555.549L377.289 556.689C377.171 556.652 377.042 556.618 376.903 556.588C376.763 556.557 376.604 556.542 376.424 556.542C376.207 556.542 376.047 556.608 375.946 556.74C375.847 556.869 375.798 557.036 375.798 557.239V557.595H377.142V558.761Z" fill="white" fill-opacity="0.25"/>
<path d="M377.142 11.466H375.798V15.9911H374.246V11.466H373.39V10.7177L374.246 10.3003V9.88293C374.246 9.39767 374.327 9.021 374.49 8.75291C374.656 8.48144 374.889 8.2914 375.187 8.18281C375.489 8.07083 375.846 8.01484 376.256 8.01484C376.558 8.01484 376.833 8.04029 377.081 8.09119C377.328 8.1387 377.53 8.19299 377.686 8.25408L377.289 9.39427C377.171 9.35695 377.042 9.32301 376.903 9.29247C376.763 9.26193 376.604 9.24666 376.424 9.24666C376.207 9.24666 376.047 9.31283 375.946 9.44518C375.847 9.57413 375.798 9.74041 375.798 9.94401V10.3003H377.142V11.466Z" fill="white" fill-opacity="0.25"/>
<path d="M436.74 565.791C435.946 565.791 435.338 565.651 434.918 565.373C434.5 565.098 434.291 564.712 434.291 564.213C434.291 563.87 434.398 563.583 434.612 563.352C434.826 563.122 435.14 562.957 435.554 562.859C435.394 562.791 435.255 562.681 435.136 562.528C435.018 562.372 434.958 562.207 434.958 562.034C434.958 561.817 435.021 561.637 435.147 561.495C435.272 561.349 435.454 561.206 435.691 561.067C435.393 560.938 435.155 560.731 434.979 560.446C434.806 560.161 434.719 559.825 434.719 559.438C434.719 559.024 434.809 558.673 434.989 558.384C435.172 558.093 435.437 557.87 435.783 557.718C436.132 557.565 436.557 557.489 437.055 557.489C437.161 557.489 437.283 557.495 437.422 557.509C437.561 557.522 437.688 557.538 437.804 557.555C437.922 557.572 438.002 557.585 438.043 557.595H440.028V558.384L439.137 558.613C439.219 558.739 439.28 558.873 439.321 559.016C439.361 559.158 439.382 559.309 439.382 559.469C439.382 560.079 439.168 560.556 438.74 560.899C438.316 561.238 437.726 561.408 436.969 561.408C436.789 561.398 436.619 561.384 436.46 561.367C436.382 561.428 436.322 561.493 436.282 561.561C436.241 561.629 436.221 561.7 436.221 561.774C436.221 561.849 436.251 561.912 436.312 561.963C436.377 562.01 436.472 562.048 436.597 562.075C436.726 562.099 436.886 562.11 437.076 562.11H438.043C438.667 562.11 439.142 562.244 439.468 562.513C439.797 562.781 439.962 563.174 439.962 563.693C439.962 564.359 439.684 564.874 439.127 565.241C438.574 565.607 437.778 565.791 436.74 565.791ZM436.806 564.778C437.176 564.778 437.493 564.742 437.758 564.671C438.026 564.603 438.231 564.505 438.374 564.376C438.516 564.25 438.588 564.099 438.588 563.923C438.588 563.78 438.545 563.666 438.46 563.581C438.379 563.5 438.253 563.442 438.084 563.408C437.917 563.374 437.704 563.358 437.442 563.358H436.638C436.448 563.358 436.277 563.388 436.124 563.449C435.975 563.51 435.856 563.595 435.768 563.704C435.679 563.816 435.635 563.945 435.635 564.091C435.635 564.304 435.737 564.472 435.941 564.594C436.148 564.717 436.436 564.778 436.806 564.778ZM437.055 560.461C437.347 560.461 437.561 560.371 437.697 560.191C437.832 560.012 437.9 559.767 437.9 559.458C437.9 559.116 437.829 558.86 437.687 558.69C437.547 558.517 437.337 558.43 437.055 558.43C436.77 558.43 436.557 558.517 436.414 558.69C436.272 558.86 436.2 559.116 436.2 559.458C436.2 559.767 436.27 560.012 436.409 560.191C436.551 560.371 436.767 560.461 437.055 560.461Z" fill="white" fill-opacity="0.25"/>
<path d="M436.74 18.4955C435.946 18.4955 435.338 18.3564 434.918 18.0781C434.5 17.8032 434.291 17.4164 434.291 16.9175C434.291 16.5748 434.398 16.2881 434.612 16.0573C434.826 15.8266 435.14 15.662 435.554 15.5636C435.394 15.4957 435.255 15.3854 435.136 15.2327C435.018 15.0766 434.958 14.912 434.958 14.739C434.958 14.5218 435.021 14.3419 435.147 14.1994C435.272 14.0535 435.454 13.911 435.691 13.7718C435.393 13.6429 435.155 13.4359 434.979 13.1508C434.806 12.8658 434.719 12.5298 434.719 12.143C434.719 11.729 434.809 11.3777 434.989 11.0893C435.172 10.7975 435.437 10.5752 435.783 10.4225C436.132 10.2698 436.557 10.1934 437.055 10.1934C437.161 10.1934 437.283 10.2002 437.422 10.2138C437.561 10.2274 437.688 10.2426 437.804 10.2596C437.922 10.2766 438.002 10.2901 438.043 10.3003H440.028V11.0893L439.137 11.3184C439.219 11.4439 439.28 11.578 439.321 11.7205C439.361 11.863 439.382 12.014 439.382 12.1735C439.382 12.7843 439.168 13.2611 438.74 13.6038C438.316 13.9432 437.726 14.1129 436.969 14.1129C436.789 14.1027 436.619 14.0891 436.46 14.0721C436.382 14.1332 436.322 14.1977 436.282 14.2656C436.241 14.3334 436.221 14.4047 436.221 14.4794C436.221 14.554 436.251 14.6168 436.312 14.6677C436.377 14.7152 436.472 14.7525 436.597 14.7797C436.726 14.8034 436.886 14.8153 437.076 14.8153H438.043C438.667 14.8153 439.142 14.9493 439.468 15.2174C439.797 15.4855 439.962 15.8792 439.962 16.3983C439.962 17.0635 439.684 17.5793 439.127 17.9458C438.574 18.3123 437.778 18.4955 436.74 18.4955ZM436.806 17.4826C437.176 17.4826 437.493 17.4469 437.758 17.3757C438.026 17.3078 438.231 17.2094 438.374 17.0804C438.516 16.9549 438.588 16.8039 438.588 16.6274C438.588 16.4849 438.545 16.3712 438.46 16.2864C438.379 16.2049 438.253 16.1472 438.084 16.1133C437.917 16.0794 437.704 16.0624 437.442 16.0624H436.638C436.448 16.0624 436.277 16.0929 436.124 16.154C435.975 16.2151 435.856 16.2999 435.768 16.4085C435.679 16.5205 435.635 16.6495 435.635 16.7954C435.635 17.0092 435.737 17.1771 435.941 17.2993C436.148 17.4215 436.436 17.4826 436.806 17.4826ZM437.055 13.1661C437.347 13.1661 437.561 13.0762 437.697 12.8963C437.832 12.7165 437.9 12.4721 437.9 12.1633C437.9 11.8206 437.829 11.5644 437.687 11.3947C437.547 11.2216 437.337 11.1351 437.055 11.1351C436.77 11.1351 436.557 11.2216 436.414 11.3947C436.272 11.5644 436.2 11.8206 436.2 12.1633C436.2 12.4721 436.27 12.7165 436.409 12.8963C436.551 13.0762 436.767 13.1661 437.055 13.1661Z" fill="white" fill-opacity="0.25"/>
<path d="M498.676 555.366V556.98C498.676 557.261 498.666 557.529 498.646 557.784C498.629 558.038 498.615 558.218 498.605 558.323H498.686C498.808 558.127 498.953 557.967 499.119 557.845C499.289 557.723 499.475 557.633 499.679 557.575C499.882 557.517 500.101 557.489 500.336 557.489C500.746 557.489 501.104 557.562 501.41 557.707C501.715 557.85 501.952 558.076 502.122 558.384C502.292 558.69 502.377 559.087 502.377 559.576V563.286H500.824V559.962C500.824 559.555 500.75 559.248 500.6 559.041C500.451 558.834 500.22 558.731 499.908 558.731C499.596 558.731 499.35 558.804 499.17 558.949C498.99 559.092 498.863 559.304 498.788 559.586C498.713 559.864 498.676 560.205 498.676 560.609V563.286H497.124V555.366H498.676Z" fill="white" fill-opacity="0.25"/>
<path d="M498.676 8.07083V9.68441C498.676 9.96607 498.666 10.2342 498.646 10.4887C498.629 10.7432 498.615 10.923 498.605 11.0282H498.686C498.808 10.8314 498.953 10.6719 499.119 10.5497C499.289 10.4276 499.475 10.3377 499.679 10.28C499.882 10.2223 500.101 10.1934 500.336 10.1934C500.746 10.1934 501.104 10.2664 501.41 10.4123C501.715 10.5548 501.952 10.7805 502.122 11.0893C502.292 11.3947 502.377 11.7917 502.377 12.2804V15.9911H500.824V12.6673C500.824 12.26 500.75 11.9529 500.6 11.7459C500.451 11.5389 500.22 11.4354 499.908 11.4354C499.596 11.4354 499.35 11.5084 499.17 11.6543C498.99 11.7968 498.863 12.0089 498.788 12.2906C498.713 12.5688 498.676 12.9099 498.676 13.3137V15.9911H497.124V8.07083H498.676Z" fill="white" fill-opacity="0.25"/>
<rect x="20.87" y="24.798" width="521.233" height="521.233" rx="8.33974" fill="white"/>
<g clip-path="url(#clip0_1_425)">
<rect x="31.2947" y="35.2227" width="62.548" height="62.548" fill="white"/>
<rect x="31.2947" y="97.7707" width="62.548" height="62.548" fill="#48454A"/>
<rect x="31.2947" y="160.319" width="62.548" height="62.548" fill="white"/>
<rect x="31.2947" y="222.867" width="62.548" height="62.548" fill="#48454A"/>
<rect x="31.2947" y="285.415" width="62.548" height="62.548" fill="white"/>
<rect x="31.2947" y="347.963" width="62.548" height="62.548" fill="#48454A"/>
<rect x="31.2947" y="410.511" width="62.548" height="62.548" fill="white"/>
<rect x="31.2947" y="473.059" width="62.548" height="62.548" fill="#48454A"/>
<rect x="281.487" y="35.2227" width="62.548" height="62.548" fill="white"/>
<rect x="281.487" y="97.7707" width="62.548" height="62.548" fill="#48454A"/>
<rect x="281.487" y="160.319" width="62.548" height="62.548" fill="white"/>
<rect x="281.487" y="222.867" width="62.548" height="62.548" fill="#48454A"/>
<rect x="281.487" y="285.415" width="62.548" height="62.548" fill="white"/>
<rect x="281.487" y="347.963" width="62.548" height="62.548" fill="#48454A"/>
<rect x="281.487" y="410.511" width="62.548" height="62.548" fill="white"/>
<rect x="281.487" y="473.059" width="62.548" height="62.548" fill="#48454A"/>
<rect x="156.391" y="35.2227" width="62.548" height="62.548" fill="white"/>
<rect x="156.391" y="97.7707" width="62.548" height="62.548" fill="#48454A"/>
<rect x="156.391" y="160.319" width="62.548" height="62.548" fill="white"/>
<rect x="156.391" y="222.867" width="62.548" height="62.548" fill="#48454A"/>
<rect x="156.391" y="285.415" width="62.548" height="62.548" fill="white"/>
<rect x="156.391" y="347.963" width="62.548" height="62.548" fill="#48454A"/>
<rect x="156.391" y="410.511" width="62.548" height="62.548" fill="white"/>
<rect x="156.391" y="473.059" width="62.548" height="62.548" fill="#48454A"/>
<rect x="406.583" y="35.2227" width="62.548" height="62.548" fill="white"/>
<rect x="406.583" y="97.7707" width="62.548" height="62.548" fill="#48454A"/>
<rect x="406.583" y="160.319" width="62.548" height="62.548" fill="white"/>
<rect x="406.583" y="222.867" width="62.548" height="62.548" fill="#48454A"/>
<rect x="406.583" y="285.415" width="62.548" height="62.548" fill="white"/>
<rect x="406.583" y="347.963" width="62.548" height="62.548" fill="#48454A"/>
<rect x="406.583" y="410.511" width="62.548" height="62.548" fill="white"/>
<rect x="406.583" y="473.059" width="62.548" height="62.548" fill="#48454A"/>
<rect x="93.8427" y="35.2227" width="62.548" height="62.548" fill="#48454A"/>
<rect x="93.8427" y="97.7707" width="62.548" height="62.548" fill="white"/>
<rect x="93.8427" y="160.319" width="62.548" height="62.548" fill="#48454A"/>
<rect x="93.8427" y="222.867" width="62.548" height="62.548" fill="white"/>
<rect x="93.8427" y="285.415" width="62.548" height="62.548" fill="#48454A"/>
<rect x="93.8427" y="347.963" width="62.548" height="62.548" fill="white"/>
<rect x="93.8427" y="410.511" width="62.548" height="62.548" fill="#48454A"/>
<rect x="93.8427" y="473.059" width="62.548" height="62.548" fill="white"/>
<rect x="344.035" y="35.2227" width="62.548" height="62.548" fill="#48454A"/>
<rect x="344.035" y="97.7707" width="62.548" height="62.548" fill="white"/>
<rect x="344.035" y="160.319" width="62.548" height="62.548" fill="#48454A"/>
<rect x="344.035" y="222.867" width="62.548" height="62.548" fill="white"/>
<rect x="344.035" y="285.415" width="62.548" height="62.548" fill="#48454A"/>
<rect x="344.035" y="347.963" width="62.548" height="62.548" fill="white"/>
<rect x="344.035" y="410.511" width="62.548" height="62.548" fill="#48454A"/>
<rect x="344.035" y="473.059" width="62.548" height="62.548" fill="white"/>
<rect x="218.939" y="35.2227" width="62.548" height="62.548" fill="#48454A"/>
<rect x="218.939" y="97.7707" width="62.548" height="62.548" fill="white"/>
<rect x="218.939" y="160.319" width="62.548" height="62.548" fill="#48454A"/>
<rect x="218.939" y="222.867" width="62.548" height="62.548" fill="white"/>
<rect x="218.939" y="285.415" width="62.548" height="62.548" fill="#48454A"/>
<rect x="218.939" y="347.963" width="62.548" height="62.548" fill="white"/>
<rect x="218.939" y="410.511" width="62.548" height="62.548" fill="#48454A"/>
<rect x="218.939" y="473.059" width="62.548" height="62.548" fill="white"/>
<rect x="469.131" y="35.2227" width="62.548" height="62.548" fill="#48454A"/>
<rect x="469.131" y="97.7707" width="62.548" height="62.548" fill="white"/>
<rect x="469.131" y="160.319" width="62.548" height="62.548" fill="#48454A"/>
<rect x="469.131" y="222.867" width="62.548" height="62.548" fill="white"/>
<rect x="469.131" y="285.415" width="62.548" height="62.548" fill="#48454A"/>
<rect x="469.131" y="347.963" width="62.548" height="62.548" fill="white"/>
<rect x="469.131" y="410.511" width="62.548" height="62.548" fill="#48454A"/>
<rect x="469.131" y="473.059" width="62.548" height="62.548" fill="white"/>
</g>
<rect x="31.5553" y="35.4833" width="499.863" height="499.863" rx="4.95172" stroke="#B3B2B4" stroke-width="0.521233"/>
<path fill-rule="evenodd" clip-rule="evenodd" d="M174.286 79.1221C177.428 78.2233 183.655 79.5206 186.796 77.2688C189.937 79.5206 196.164 78.2233 199.306 79.1221C199.306 79.1221 200.835 79.6225 202.086 80.9754C201.455 81.8742 200.557 81.8928 199.306 81.4387C196.164 80.5399 189.937 81.865 186.796 80.5121C183.655 81.865 177.428 80.5399 174.286 81.4387C173.035 81.8928 172.137 81.8742 171.506 80.9754C172.757 79.6225 174.286 79.1221 174.286 79.1221Z" fill="black" stroke="black" stroke-width="0.78185" stroke-linejoin="round"/>
<path fill-rule="evenodd" clip-rule="evenodd" d="M179.846 75.4156C182.163 77.7322 191.429 77.7322 193.746 75.4156C194.209 74.0256 193.746 73.5623 193.746 73.5623C193.746 71.2457 191.429 69.8557 191.429 69.8557C196.526 68.4658 196.989 59.1994 186.796 55.4929C176.603 59.1994 177.066 68.4658 182.163 69.8557C182.163 69.8557 179.846 71.2457 179.846 73.5623C179.846 73.5623 179.383 74.0256 179.846 75.4156Z" fill="black" stroke="black" stroke-width="0.78185" stroke-linejoin="round"/>
<path fill-rule="evenodd" clip-rule="evenodd" d="M189.113 53.1763C189.113 53.7907 188.869 54.3799 188.434 54.8143C188 55.2488 187.41 55.4929 186.796 55.4929C186.182 55.4929 185.592 55.2488 185.158 54.8143C184.723 54.3799 184.479 53.7907 184.479 53.1763C184.479 52.5619 184.723 51.9726 185.158 51.5382C185.592 51.1037 186.182 50.8597 186.796 50.8597C187.41 50.8597 188 51.1037 188.434 51.5382C188.869 51.9726 189.113 52.5619 189.113 53.1763Z" fill="black" stroke="black" stroke-width="0.78185" stroke-linejoin="round"/>
<path d="M184.479 62.4426H189.113M182.163 69.8557H191.429H182.163ZM179.846 73.5623H193.746H179.846ZM186.796 60.126V64.7592V60.126Z" stroke="white" stroke-width="0.78185" stroke-linecap="round"/>
<path fill-rule="evenodd" clip-rule="evenodd" d="M365.579 79.1221C368.72 78.2233 374.947 79.5206 378.089 77.2688C381.23 79.5206 387.457 78.2233 390.598 79.1221C390.598 79.1221 392.127 79.6225 393.378 80.9754C392.748 81.8742 391.849 81.8928 390.598 81.4387C387.457 80.5399 381.23 81.865 378.089 80.5121C374.947 81.865 368.72 80.5399 365.579 81.4387C364.328 81.8928 363.429 81.8742 362.799 80.9754C364.05 79.6225 365.579 79.1221 365.579 79.1221Z" fill="black" stroke="black" stroke-width="0.78185" stroke-linejoin="round"/>
<path fill-rule="evenodd" clip-rule="evenodd" d="M371.139 75.4156C373.455 77.7322 382.722 77.7322 385.038 75.4156C385.502 74.0256 385.038 73.5623 385.038 73.5623C385.038 71.2457 382.722 69.8557 382.722 69.8557C387.818 68.4658 388.282 59.1994 378.089 55.4929C367.896 59.1994 368.359 68.4658 373.455 69.8557C373.455 69.8557 371.139 71.2457 371.139 73.5623C371.139 73.5623 370.675 74.0256 371.139 75.4156Z" fill="black" stroke="black" stroke-width="0.78185" stroke-linejoin="round"/>
<path fill-rule="evenodd" clip-rule="evenodd" d="M380.405 53.1763C380.405 53.7907 380.161 54.3799 379.727 54.8143C379.292 55.2488 378.703 55.4929 378.089 55.4929C377.474 55.4929 376.885 55.2488 376.451 54.8143C376.016 54.3799 375.772 53.7907 375.772 53.1763C375.772 52.5619 376.016 51.9726 376.451 51.5382C376.885 51.1037 377.474 50.8597 378.089 50.8597C378.703 50.8597 379.292 51.1037 379.727 51.5382C380.161 51.9726 380.405 52.5619 380.405 53.1763Z" fill="black" stroke="black" stroke-width="0.78185" stroke-linejoin="round"/>
<path d="M375.772 62.4426H380.405M373.455 69.8557H382.722H373.455ZM371.139 73.5623H385.038H371.139ZM378.089 60.126V64.7592V60.126Z" stroke="white" stroke-width="0.78185" stroke-linecap="round"/>
<path fill-rule="evenodd" clip-rule="evenodd" d="M174.286 517.479C177.428 516.581 183.655 517.878 186.796 515.626C189.937 517.878 196.164 516.581 199.306 517.479C199.306 517.479 200.835 517.98 202.086 519.333C201.455 520.231 200.557 520.25 199.306 519.796C196.164 518.897 189.937 520.222 186.796 518.869C183.655 520.222 177.428 518.897 174.286 519.796C173.035 520.25 172.137 520.231 171.506 519.333C172.757 517.98 174.286 517.479 174.286 517.479Z" fill="white" stroke="black" stroke-width="0.78185" stroke-linejoin="round"/>
<path fill-rule="evenodd" clip-rule="evenodd" d="M179.846 513.773C182.163 516.089 191.429 516.089 193.746 513.773C194.209 512.383 193.746 511.92 193.746 511.92C193.746 509.603 191.429 508.213 191.429 508.213C196.526 506.823 196.989 497.557 186.796 493.85C176.603 497.557 177.066 506.823 182.163 508.213C182.163 508.213 179.846 509.603 179.846 511.92C179.846 511.92 179.383 512.383 179.846 513.773Z" fill="white" stroke="black" stroke-width="0.78185" stroke-linejoin="round"/>
<path fill-rule="evenodd" clip-rule="evenodd" d="M189.113 491.534C189.113 492.148 188.869 492.737 188.434 493.172C188 493.606 187.41 493.85 186.796 493.85C186.182 493.85 185.592 493.606 185.158 493.172C184.723 492.737 184.479 492.148 184.479 491.534C184.479 490.919 184.723 490.33 185.158 489.895C185.592 489.461 186.182 489.217 186.796 489.217C187.41 489.217 188 489.461 188.434 489.895C188.869 490.33 189.113 490.919 189.113 491.534Z" fill="white" stroke="black" stroke-width="0.78185" stroke-linejoin="round"/>
<path d="M184.479 500.8H189.113M182.163 508.213H191.429H182.163ZM179.846 511.92H193.746H179.846ZM186.796 498.483V503.116V498.483Z" stroke="black" stroke-width="0.78185" stroke-linecap="round"/>
<path fill-rule="evenodd" clip-rule="evenodd" d="M365.579 517.479C368.72 516.581 374.947 517.878 378.089 515.626C381.23 517.878 387.457 516.581 390.598 517.479C390.598 517.479 392.127 517.98 393.378 519.333C392.748 520.231 391.849 520.25 390.598 519.796C387.457 518.897 381.23 520.222 378.089 518.869C374.947 520.222 368.72 518.897 365.579 519.796C364.328 520.25 363.429 520.231 362.799 519.333C364.05 517.98 365.579 517.479 365.579 517.479Z" fill="white" stroke="black" stroke-width="0.78185" stroke-linejoin="round"/>
<path fill-rule="evenodd" clip-rule="evenodd" d="M371.139 513.773C373.455 516.089 382.722 516.089 385.038 513.773C385.502 512.383 385.038 511.92 385.038 511.92C385.038 509.603 382.722 508.213 382.722 508.213C387.818 506.823 388.282 497.557 378.089 493.85C367.896 497.557 368.359 506.823 373.455 508.213C373.455 508.213 371.139 509.603 371.139 511.92C371.139 511.92 370.675 512.383 371.139 513.773Z" fill="white" stroke="black" stroke-width="0.78185" stroke-linejoin="round"/>
<path fill-rule="evenodd" clip-rule="evenodd" d="M380.405 491.534C380.405 492.148 380.161 492.737 379.727 493.172C379.292 493.606 378.703 493.85 378.089 493.85C377.474 493.85 376.885 493.606 376.451 493.172C376.016 492.737 375.772 492.148 375.772 491.534C375.772 490.919 376.016 490.33 376.451 489.895C376.885 489.461 377.474 489.217 378.089 489.217C378.703 489.217 379.292 489.461 379.727 489.895C380.161 490.33 380.405 490.919 380.405 491.534Z" fill="white" stroke="black" stroke-width="0.78185" stroke-linejoin="round"/>
<path d="M375.772 500.8H380.405M373.455 508.213H382.722H373.455ZM371.139 511.92H385.038H371.139ZM378.089 498.483V503.116V498.483Z" stroke="black" stroke-width="0.78185" stroke-linecap="round"/>
<path d="M251.533 55.5554V50.3384" stroke="black" stroke-width="0.78185" stroke-linecap="round"/>
<path fill-rule="evenodd" clip-rule="evenodd" d="M251.533 67.9445C251.533 67.9445 255.703 60.9948 254.313 58.2149C254.313 58.2149 253.386 55.8983 251.533 55.8983C249.68 55.8983 248.753 58.2149 248.753 58.2149C247.363 60.9948 251.533 67.9445 251.533 67.9445Z" fill="black" stroke="black" stroke-width="0.78185"/>
<path fill-rule="evenodd" clip-rule="evenodd" d="M242.267 79.0642C247.363 82.3074 255.703 82.3074 260.799 79.0642V72.5777C260.799 72.5777 269.139 68.4079 266.359 62.848C262.653 56.8249 253.85 59.6048 251.533 66.5546V69.7978V66.5546C249.216 59.6048 240.413 56.8249 236.707 62.848C233.927 68.4079 242.267 72.5777 242.267 72.5777V79.0642Z" fill="black" stroke="black" stroke-width="0.78185" stroke-linecap="round" stroke-linejoin="round"/>
<path d="M249.216 52.1917H253.85" stroke="black" stroke-width="0.78185" stroke-linecap="round"/>
<path d="M260.336 72.1144C260.336 72.1144 268.212 68.4079 265.924 63.1724C262.328 57.7515 253.85 61.4581 251.533 67.4812V69.4272V67.4812C249.216 61.4581 240.738 57.7515 237.142 63.1724C234.853 68.4079 242.73 72.1144 242.73 72.1144" stroke="white" stroke-width="0.78185" stroke-linecap="round" stroke-linejoin="round"/>
<path d="M242.267 79.0642C247.363 76.2843 255.703 76.2843 260.799 79.0642M242.267 72.5777C247.363 69.7978 255.703 69.7978 260.799 72.5777H242.267ZM242.267 75.821C247.363 73.041 255.703 73.041 260.799 75.821H242.267Z" stroke="white" stroke-width="0.78185" stroke-linecap="round" stroke-linejoin="round"/>
<path d="M251.533 494.434V489.217" stroke="black" stroke-width="0.78185" stroke-linecap="round"/>
<path d="M249.216 491.07H253.85" stroke="black" stroke-width="0.78185" stroke-linecap="round"/>
<path fill-rule="evenodd" clip-rule="evenodd" d="M251.533 506.823C251.533 506.823 255.703 499.873 254.313 497.093C254.313 497.093 253.386 494.777 251.533 494.777C249.68 494.777 248.753 497.093 248.753 497.093C247.363 499.873 251.533 506.823 251.533 506.823Z" fill="white" stroke="black" stroke-width="0.78185"/>
<path fill-rule="evenodd" clip-rule="evenodd" d="M242.267 517.943C247.363 521.186 255.703 521.186 260.799 517.943V511.456C260.799 511.456 269.139 507.286 266.359 501.727C262.653 495.703 253.85 498.483 251.533 505.433V508.676V505.433C249.216 498.483 240.413 495.703 236.707 501.727C233.927 507.286 242.267 511.456 242.267 511.456V517.943Z" fill="white" stroke="black" stroke-width="0.78185" stroke-linecap="round" stroke-linejoin="round"/>
<path d="M242.267 511.456C247.363 508.676 255.703 508.676 260.799 511.456" stroke="black" stroke-width="0.78185" stroke-linecap="round" stroke-linejoin="round"/>
<path d="M242.267 514.699C247.363 511.92 255.703 511.92 260.799 514.699" stroke="black" stroke-width="0.78185" stroke-linecap="round" stroke-linejoin="round"/>
<path d="M242.267 517.943C247.363 515.163 255.703 515.163 260.799 517.943" stroke="black" stroke-width="0.78185" stroke-linecap="round" stroke-linejoin="round"/>
<path fill-rule="evenodd" clip-rule="evenodd" d="M124.306 54.1608C134.036 55.0874 139.595 61.5739 139.132 81.0333H117.819C117.819 72.6936 127.086 75.0101 125.233 61.5739" fill="black"/>
<path d="M124.306 54.1608C134.036 55.0874 139.595 61.5739 139.132 81.0333H117.819C117.819 72.6936 127.086 75.0101 125.233 61.5739" stroke="black" stroke-width="0.78185" stroke-linecap="round" stroke-linejoin="round"/>
<path fill-rule="evenodd" clip-rule="evenodd" d="M126.159 61.5739C126.511 64.2704 121.016 68.4032 118.746 69.9136C115.966 71.7669 116.133 73.9352 114.113 73.6202C113.147 72.7492 115.419 70.8032 114.113 70.8403C113.186 70.8403 114.289 71.98 113.186 72.6936C112.26 72.6936 109.477 73.6202 109.48 68.987C109.48 67.1337 115.04 57.8674 115.04 57.8674C115.04 57.8674 116.791 56.1067 116.893 54.6241C116.216 53.7031 116.429 52.7709 116.429 51.8442C117.356 50.9176 119.209 54.1608 119.209 54.1608H121.063C121.063 54.1608 121.785 52.3149 123.379 51.3809C124.306 51.3809 124.306 54.1608 124.306 54.1608" fill="black"/>
<path d="M126.159 61.5739C126.511 64.2704 121.016 68.4032 118.746 69.9136C115.966 71.7669 116.133 73.9352 114.113 73.6202C113.147 72.7492 115.419 70.8032 114.113 70.8403C113.186 70.8403 114.289 71.98 113.186 72.6936C112.26 72.6936 109.477 73.6202 109.48 68.987C109.48 67.1337 115.04 57.8674 115.04 57.8674C115.04 57.8674 116.791 56.1067 116.893 54.6241C116.216 53.7031 116.429 52.7709 116.429 51.8442C117.356 50.9176 119.209 54.1608 119.209 54.1608H121.063C121.063 54.1608 121.785 52.3149 123.379 51.3809C124.306 51.3809 124.306 54.1608 124.306 54.1608" stroke="black" stroke-width="0.78185" stroke-linecap="round" stroke-linejoin="round"/>
<path fill-rule="evenodd" clip-rule="evenodd" d="M112.723 68.5237C112.723 68.6466 112.674 68.7644 112.587 68.8513C112.5 68.9382 112.382 68.987 112.26 68.987C112.137 68.987 112.019 68.9382 111.932 68.8513C111.845 68.7644 111.796 68.6466 111.796 68.5237C111.796 68.4008 111.845 68.283 111.932 68.1961C112.019 68.1092 112.137 68.0604 112.26 68.0604C112.382 68.0604 112.5 68.1092 112.587 68.1961C112.674 68.283 112.723 68.4008 112.723 68.5237Z" fill="white" stroke="white" stroke-width="0.78185" stroke-linecap="round" stroke-linejoin="round"/>
<path fill-rule="evenodd" clip-rule="evenodd" d="M117.757 59.489C117.573 59.8082 117.354 60.09 117.148 60.2723C116.943 60.4546 116.768 60.5225 116.661 60.461C116.555 60.3996 116.526 60.2138 116.581 59.9447C116.636 59.6755 116.771 59.3449 116.955 59.0257C117.139 58.7064 117.358 58.4247 117.564 58.2424C117.769 58.0601 117.945 57.9922 118.051 58.0536C118.157 58.1151 118.186 58.3008 118.131 58.57C118.076 58.8392 117.942 59.1697 117.757 59.489Z" fill="white" stroke="white" stroke-width="0.78185" stroke-linecap="round" stroke-linejoin="round"/>
<path fill-rule="evenodd" clip-rule="evenodd" d="M126.669 54.5315L126.252 55.8751L126.715 56.0141C129.634 56.9407 131.951 58.3214 134.036 62.2689C136.121 66.2164 137.047 71.8225 136.584 81.0333L136.537 81.4966H138.622L138.669 81.0333C139.132 71.7113 137.853 65.4195 135.657 61.2589C133.461 57.0982 130.292 55.106 127.141 54.6241L126.669 54.5315Z" fill="white"/>
<path fill-rule="evenodd" clip-rule="evenodd" d="M438.61 53.6396C448.339 54.5662 453.899 61.0527 453.436 80.5121H432.123C432.123 72.1723 441.389 74.4889 439.536 61.0527" fill="black"/>
<path d="M438.61 53.6396C448.339 54.5662 453.899 61.0527 453.436 80.5121H432.123C432.123 72.1723 441.389 74.4889 439.536 61.0527" stroke="black" stroke-width="0.78185" stroke-linecap="round" stroke-linejoin="round"/>
<path fill-rule="evenodd" clip-rule="evenodd" d="M440.463 61.0527C440.815 63.7492 435.32 67.882 433.05 69.3924C430.27 71.2457 430.437 73.414 428.417 73.099C427.451 72.2279 429.723 70.282 428.417 70.3191C427.49 70.3191 428.593 71.4588 427.49 72.1723C426.563 72.1723 423.781 73.099 423.783 68.4658C423.783 66.6125 429.343 57.3461 429.343 57.3461C429.343 57.3461 431.095 55.5855 431.196 54.1029C430.52 53.1818 430.733 52.2496 430.733 51.323C431.66 50.3964 433.513 53.6396 433.513 53.6396H435.366C435.366 53.6396 436.089 51.7937 437.683 50.8597C438.61 50.8597 438.61 53.6396 438.61 53.6396" fill="black"/>
<path d="M440.463 61.0527C440.815 63.7492 435.32 67.882 433.05 69.3924C430.27 71.2457 430.437 73.414 428.417 73.099C427.451 72.2279 429.723 70.282 428.417 70.3191C427.49 70.3191 428.593 71.4588 427.49 72.1723C426.563 72.1723 423.781 73.099 423.783 68.4658C423.783 66.6125 429.343 57.3461 429.343 57.3461C429.343 57.3461 431.095 55.5855 431.196 54.1029C430.52 53.1818 430.733 52.2496 430.733 51.323C431.66 50.3964 433.513 53.6396 433.513 53.6396H435.366C435.366 53.6396 436.089 51.7937 437.683 50.8597C438.61 50.8597 438.61 53.6396 438.61 53.6396" stroke="black" stroke-width="0.78185" stroke-linecap="round" stroke-linejoin="round"/>
<path fill-rule="evenodd" clip-rule="evenodd" d="M427.027 68.0025C427.027 68.1253 426.978 68.2432 426.891 68.3301C426.804 68.417 426.686 68.4658 426.563 68.4658C426.44 68.4658 426.323 68.417 426.236 68.3301C426.149 68.2432 426.1 68.1253 426.1 68.0025C426.1 67.8796 426.149 67.7617 426.236 67.6748C426.323 67.588 426.44 67.5391 426.563 67.5391C426.686 67.5391 426.804 67.588 426.891 67.6748C426.978 67.7617 427.027 67.8796 427.027 68.0025Z" fill="white" stroke="white" stroke-width="0.78185" stroke-linecap="round" stroke-linejoin="round"/>
<path fill-rule="evenodd" clip-rule="evenodd" d="M432.061 58.9677C431.877 59.287 431.658 59.5687 431.452 59.751C431.247 59.9333 431.071 60.0012 430.965 59.9398C430.858 59.8784 430.83 59.6926 430.885 59.4234C430.94 59.1542 431.074 58.8237 431.259 58.5044C431.443 58.1852 431.662 57.9034 431.868 57.7211C432.073 57.5388 432.248 57.4709 432.355 57.5324C432.461 57.5938 432.49 57.7796 432.435 58.0488C432.38 58.3179 432.245 58.6485 432.061 58.9677Z" fill="white" stroke="white" stroke-width="0.78185" stroke-linecap="round" stroke-linejoin="round"/>
<path fill-rule="evenodd" clip-rule="evenodd" d="M440.973 54.0102L440.556 55.3539L441.019 55.4929C443.938 56.4195 446.254 57.8002 448.339 61.7477C450.424 65.6951 451.351 71.3013 450.888 80.5121L450.841 80.9754H452.926L452.972 80.5121C453.436 71.1901 452.157 64.8982 449.961 60.7376C447.765 56.577 444.596 54.5848 441.445 54.1029L440.973 54.0102Z" fill="white"/>
<path fill-rule="evenodd" clip-rule="evenodd" d="M125.348 491.997C135.078 492.923 140.638 499.41 140.175 518.869H118.862C118.862 510.53 128.128 512.846 126.275 499.41" fill="white"/>
<path d="M125.348 491.997C135.078 492.923 140.638 499.41 140.175 518.869H118.862C118.862 510.53 128.128 512.846 126.275 499.41" stroke="black" stroke-width="0.78185" stroke-linecap="round" stroke-linejoin="round"/>
<path fill-rule="evenodd" clip-rule="evenodd" d="M127.202 499.41C127.554 502.106 122.059 506.239 119.789 507.75C117.009 509.603 117.175 511.771 115.155 511.456C114.19 510.585 116.462 508.639 115.155 508.676C114.229 508.676 115.331 509.816 114.229 510.53C113.302 510.53 110.519 511.456 110.522 506.823C110.522 504.97 116.082 495.703 116.082 495.703C116.082 495.703 117.833 493.943 117.935 492.46C117.259 491.539 117.472 490.607 117.472 489.68C118.399 488.754 120.252 491.997 120.252 491.997H122.105C122.105 491.997 122.828 490.151 124.422 489.217C125.348 489.217 125.348 491.997 125.348 491.997" fill="white"/>
<path d="M127.202 499.41C127.554 502.106 122.059 506.239 119.789 507.75C117.009 509.603 117.175 511.771 115.155 511.456C114.19 510.585 116.462 508.639 115.155 508.676C114.229 508.676 115.331 509.816 114.229 510.53C113.302 510.53 110.519 511.456 110.522 506.823C110.522 504.97 116.082 495.703 116.082 495.703C116.082 495.703 117.833 493.943 117.935 492.46C117.259 491.539 117.472 490.607 117.472 489.68C118.399 488.754 120.252 491.997 120.252 491.997H122.105C122.105 491.997 122.828 490.151 124.422 489.217C125.348 489.217 125.348 491.997 125.348 491.997" stroke="black" stroke-width="0.78185" stroke-linecap="round" stroke-linejoin="round"/>
<path fill-rule="evenodd" clip-rule="evenodd" d="M113.765 506.36C113.765 506.483 113.717 506.6 113.63 506.687C113.543 506.774 113.425 506.823 113.302 506.823C113.179 506.823 113.061 506.774 112.974 506.687C112.888 506.6 112.839 506.483 112.839 506.36C112.839 506.237 112.888 506.119 112.974 506.032C113.061 505.945 113.179 505.896 113.302 505.896C113.425 505.896 113.543 505.945 113.63 506.032C113.717 506.119 113.765 506.237 113.765 506.36Z" fill="black" stroke="black" stroke-width="0.78185" stroke-linecap="round" stroke-linejoin="round"/>
<path fill-rule="evenodd" clip-rule="evenodd" d="M118.8 497.325C118.615 497.644 118.396 497.926 118.191 498.108C117.985 498.291 117.81 498.358 117.704 498.297C117.597 498.236 117.568 498.05 117.623 497.781C117.679 497.512 117.813 497.181 117.997 496.862C118.182 496.542 118.401 496.261 118.606 496.078C118.812 495.896 118.987 495.828 119.094 495.89C119.2 495.951 119.229 496.137 119.174 496.406C119.119 496.675 118.984 497.006 118.8 497.325Z" fill="black" stroke="black" stroke-width="0.78185" stroke-linecap="round" stroke-linejoin="round"/>
<path fill-rule="evenodd" clip-rule="evenodd" d="M438.61 493.039C448.339 493.966 453.899 500.452 453.436 519.912H432.123C432.123 511.572 441.389 513.889 439.536 500.452" fill="white"/>
<path d="M438.61 493.039C448.339 493.966 453.899 500.452 453.436 519.912H432.123C432.123 511.572 441.389 513.889 439.536 500.452" stroke="black" stroke-width="0.78185" stroke-linecap="round" stroke-linejoin="round"/>
<path fill-rule="evenodd" clip-rule="evenodd" d="M440.463 500.452C440.815 503.149 435.32 507.282 433.05 508.792C430.27 510.645 430.437 512.814 428.417 512.499C427.451 511.628 429.723 509.682 428.417 509.719C427.49 509.719 428.593 510.859 427.49 511.572C426.563 511.572 423.781 512.499 423.783 507.866C423.783 506.012 429.343 496.746 429.343 496.746C429.343 496.746 431.095 494.985 431.196 493.503C430.52 492.582 430.733 491.649 430.733 490.723C431.66 489.796 433.513 493.039 433.513 493.039H435.366C435.366 493.039 436.089 491.194 437.683 490.259C438.61 490.259 438.61 493.039 438.61 493.039" fill="white"/>
<path d="M440.463 500.452C440.815 503.149 435.32 507.282 433.05 508.792C430.27 510.645 430.437 512.814 428.417 512.499C427.451 511.628 429.723 509.682 428.417 509.719C427.49 509.719 428.593 510.859 427.49 511.572C426.563 511.572 423.781 512.499 423.783 507.866C423.783 506.012 429.343 496.746 429.343 496.746C429.343 496.746 431.095 494.985 431.196 493.503C430.52 492.582 430.733 491.649 430.733 490.723C431.66 489.796 433.513 493.039 433.513 493.039H435.366C435.366 493.039 436.089 491.194 437.683 490.259C438.61 490.259 438.61 493.039 438.61 493.039" stroke="black" stroke-width="0.78185" stroke-linecap="round" stroke-linejoin="round"/>
<path fill-rule="evenodd" clip-rule="evenodd" d="M427.027 507.402C427.027 507.525 426.978 507.643 426.891 507.73C426.804 507.817 426.686 507.866 426.563 507.866C426.44 507.866 426.323 507.817 426.236 507.73C426.149 507.643 426.1 507.525 426.1 507.402C426.1 507.279 426.149 507.162 426.236 507.075C426.323 506.988 426.44 506.939 426.563 506.939C426.686 506.939 426.804 506.988 426.891 507.075C426.978 507.162 427.027 507.279 427.027 507.402Z" fill="black" stroke="black" stroke-width="0.78185" stroke-linecap="round" stroke-linejoin="round"/>
<path fill-rule="evenodd" clip-rule="evenodd" d="M432.061 498.368C431.877 498.687 431.658 498.969 431.452 499.151C431.247 499.333 431.071 499.401 430.965 499.34C430.858 499.278 430.83 499.092 430.885 498.823C430.94 498.554 431.074 498.223 431.259 497.904C431.443 497.585 431.662 497.303 431.868 497.121C432.073 496.939 432.248 496.871 432.355 496.932C432.461 496.994 432.49 497.179 432.435 497.449C432.38 497.718 432.245 498.048 432.061 498.368Z" fill="black" stroke="black" stroke-width="0.78185" stroke-linecap="round" stroke-linejoin="round"/>
<path d="M63.3216 112.886C61.2737 112.886 59.615 114.545 59.615 116.593C59.615 117.418 59.8837 118.178 60.3378 118.798C58.5309 119.836 57.2984 121.773 57.2984 124.006C57.2984 125.887 58.1695 127.564 59.5316 128.667C56.7517 129.649 52.6652 133.81 52.6652 141.149H73.9779C73.9779 133.81 69.8914 129.649 67.1115 128.667C68.4737 127.564 69.3447 125.887 69.3447 124.006C69.3447 121.773 68.1123 119.836 66.3053 118.798C66.7594 118.178 67.0281 117.418 67.0281 116.593C67.0281 114.545 65.3694 112.886 63.3216 112.886Z" fill="black" stroke="white" stroke-width="0.78185" stroke-linecap="round"/>
<path d="M124.827 112.886C122.779 112.886 121.121 114.545 121.121 116.593C121.121 117.418 121.389 118.178 121.843 118.798C120.036 119.836 118.804 121.773 118.804 124.006C118.804 125.887 119.675 127.564 121.037 128.667C118.257 129.649 114.171 133.81 114.171 141.149H135.483C135.483 133.81 131.397 129.649 128.617 128.667C129.979 127.564 130.85 125.887 130.85 124.006C130.85 121.773 129.618 119.836 127.811 118.798C128.265 118.178 128.534 117.418 128.534 116.593C128.534 114.545 126.875 112.886 124.827 112.886Z" fill="black" stroke="white" stroke-width="0.78185" stroke-linecap="round"/>
<path d="M186.854 112.886C184.806 112.886 183.147 114.545 183.147 116.593C183.147 117.418 183.416 118.178 183.87 118.798C182.063 119.836 180.831 121.773 180.831 124.006C180.831 125.887 181.702 127.564 183.064 128.667C180.284 129.649 176.198 133.81 176.198 141.149H197.51C197.51 133.81 193.424 129.649 190.644 128.667C192.006 127.564 192.877 125.887 192.877 124.006C192.877 121.773 191.645 119.836 189.838 118.798C190.292 118.178 190.56 117.418 190.56 116.593C190.56 114.545 188.902 112.886 186.854 112.886Z" fill="black" stroke="white" stroke-width="0.78185" stroke-linecap="round"/>
<path d="M251.487 112.886C249.439 112.886 247.78 114.545 247.78 116.593C247.78 117.418 248.049 118.178 248.503 118.798C246.696 119.836 245.464 121.773 245.464 124.006C245.464 125.887 246.335 127.564 247.697 128.667C244.917 129.649 240.831 133.81 240.831 141.149H262.143C262.143 133.81 258.057 129.649 255.277 128.667C256.639 127.564 257.51 125.887 257.51 124.006C257.51 121.773 256.278 119.836 254.471 118.798C254.925 118.178 255.193 117.418 255.193 116.593C255.193 114.545 253.535 112.886 251.487 112.886Z" fill="black" stroke="white" stroke-width="0.78185" stroke-linecap="round"/>
<path d="M313.514 112.886C311.466 112.886 309.807 114.545 309.807 116.593C309.807 117.418 310.076 118.178 310.53 118.798C308.723 119.836 307.49 121.773 307.49 124.006C307.49 125.887 308.362 127.564 309.724 128.667C306.944 129.649 302.857 133.81 302.857 141.149H324.17C324.17 133.81 320.083 129.649 317.304 128.667C318.666 127.564 319.537 125.887 319.537 124.006C319.537 121.773 318.304 119.836 316.497 118.798C316.951 118.178 317.22 117.418 317.22 116.593C317.22 114.545 315.561 112.886 313.514 112.886Z" fill="black" stroke="white" stroke-width="0.78185" stroke-linecap="round"/>
<path d="M378.147 112.886C376.099 112.886 374.44 114.545 374.44 116.593C374.44 117.418 374.709 118.178 375.163 118.798C373.356 119.836 372.123 121.773 372.123 124.006C372.123 125.887 372.994 127.564 374.357 128.667C371.577 129.649 367.49 133.81 367.49 141.149H388.803C388.803 133.81 384.716 129.649 381.936 128.667C383.299 127.564 384.17 125.887 384.17 124.006C384.17 121.773 382.937 119.836 381.13 118.798C381.584 118.178 381.853 117.418 381.853 116.593C381.853 114.545 380.194 112.886 378.147 112.886Z" fill="black" stroke="white" stroke-width="0.78185" stroke-linecap="round"/>
<path d="M438.61 112.886C436.562 112.886 434.903 114.545 434.903 116.593C434.903 117.418 435.172 118.178 435.626 118.798C433.819 119.836 432.587 121.773 432.587 124.006C432.587 125.887 433.458 127.564 434.82 128.667C432.04 129.649 427.953 133.81 427.953 141.149H449.266C449.266 133.81 445.18 129.649 442.4 128.667C443.762 127.564 444.633 125.887 444.633 124.006C444.633 121.773 443.4 119.836 441.593 118.798C442.047 118.178 442.316 117.418 442.316 116.593C442.316 114.545 440.658 112.886 438.61 112.886Z" fill="black" stroke="white" stroke-width="0.78185" stroke-linecap="round"/>
<path d="M503.243 112.886C501.195 112.886 499.536 114.545 499.536 116.593C499.536 117.418 499.805 118.178 500.259 118.798C498.452 119.836 497.219 121.773 497.219 124.006C497.219 125.887 498.09 127.564 499.453 128.667C496.673 129.649 492.586 133.81 492.586 141.149H513.899C513.899 133.81 509.812 129.649 507.033 128.667C508.395 127.564 509.266 125.887 509.266 124.006C509.266 121.773 508.033 119.836 506.226 118.798C506.68 118.178 506.949 117.418 506.949 116.593C506.949 114.545 505.29 112.886 503.243 112.886Z" fill="black" stroke="white" stroke-width="0.78185" stroke-linecap="round"/>
<path d="M63.3216 427.19C61.2737 427.19 59.615 428.849 59.615 430.897C59.615 431.721 59.8837 432.481 60.3378 433.102C58.5309 434.14 57.2984 436.077 57.2984 438.31C57.2984 440.191 58.1695 441.868 59.5316 442.971C56.7517 443.953 52.6652 448.114 52.6652 455.453H73.9779C73.9779 448.114 69.8914 443.953 67.1115 442.971C68.4737 441.868 69.3447 440.191 69.3447 438.31C69.3447 436.077 68.1123 434.14 66.3053 433.102C66.7594 432.481 67.0281 431.721 67.0281 430.897C67.0281 428.849 65.3694 427.19 63.3216 427.19Z" fill="white" stroke="black" stroke-width="0.78185" stroke-linecap="round"/>
<path d="M251.487 427.19C249.439 427.19 247.78 428.849 247.78 430.897C247.78 431.721 248.049 432.481 248.503 433.102C246.696 434.14 245.464 436.077 245.464 438.31C245.464 440.191 246.335 441.868 247.697 442.971C244.917 443.953 240.831 448.114 240.831 455.453H262.143C262.143 448.114 258.057 443.953 255.277 442.971C256.639 441.868 257.51 440.191 257.51 438.31C257.51 436.077 256.278 434.14 254.471 433.102C254.925 432.481 255.193 431.721 255.193 430.897C255.193 428.849 253.535 427.19 251.487 427.19Z" fill="white" stroke="black" stroke-width="0.78185" stroke-linecap="round"/>
<path d="M124.827 427.19C122.779 427.19 121.121 428.849 121.121 430.897C121.121 431.721 121.389 432.481 121.843 433.102C120.036 434.14 118.804 436.077 118.804 438.31C118.804 440.191 119.675 441.868 121.037 442.971C118.257 443.953 114.171 448.114 114.171 455.453H135.483C135.483 448.114 131.397 443.953 128.617 442.971C129.979 441.868 130.85 440.191 130.85 438.31C130.85 436.077 129.618 434.14 127.811 433.102C128.265 432.481 128.534 431.721 128.534 430.897C128.534 428.849 126.875 427.19 124.827 427.19Z" fill="white" stroke="black" stroke-width="0.78185" stroke-linecap="round"/>
<path d="M313.514 427.19C311.466 427.19 309.807 428.849 309.807 430.897C309.807 431.721 310.076 432.481 310.53 433.102C308.723 434.14 307.49 436.077 307.49 438.31C307.49 440.191 308.362 441.868 309.724 442.971C306.944 443.953 302.857 448.114 302.857 455.453H324.17C324.17 448.114 320.083 443.953 317.304 442.971C318.666 441.868 319.537 440.191 319.537 438.31C319.537 436.077 318.304 434.14 316.497 433.102C316.951 432.481 317.22 431.721 317.22 430.897C317.22 428.849 315.561 427.19 313.514 427.19Z" fill="white" stroke="black" stroke-width="0.78185" stroke-linecap="round"/>
<path d="M438.61 427.19C436.562 427.19 434.903 428.849 434.903 430.897C434.903 431.721 435.172 432.481 435.626 433.102C433.819 434.14 432.587 436.077 432.587 438.31C432.587 440.191 433.458 441.868 434.82 442.971C432.04 443.953 427.953 448.114 427.953 455.453H449.266C449.266 448.114 445.18 443.953 442.4 442.971C443.762 441.868 444.633 440.191 444.633 438.31C444.633 436.077 443.4 434.14 441.593 433.102C442.047 432.481 442.316 431.721 442.316 430.897C442.316 428.849 440.658 427.19 438.61 427.19Z" fill="white" stroke="black" stroke-width="0.78185" stroke-linecap="round"/>
<path d="M186.854 427.19C184.806 427.19 183.147 428.849 183.147 430.897C183.147 431.721 183.416 432.481 183.87 433.102C182.063 434.14 180.831 436.077 180.831 438.31C180.831 440.191 181.702 441.868 183.064 442.971C180.284 443.953 176.198 448.114 176.198 455.453H197.51C197.51 448.114 193.424 443.953 190.644 442.971C192.006 441.868 192.877 440.191 192.877 438.31C192.877 436.077 191.645 434.14 189.838 433.102C190.292 432.481 190.56 431.721 190.56 430.897C190.56 428.849 188.902 427.19 186.854 427.19Z" fill="white" stroke="black" stroke-width="0.78185" stroke-linecap="round"/>
<path d="M378.147 427.19C376.099 427.19 374.44 428.849 374.44 430.897C374.44 431.721 374.709 432.481 375.163 433.102C373.356 434.14 372.123 436.077 372.123 438.31C372.123 440.191 372.994 441.868 374.357 442.971C371.577 443.953 367.49 448.114 367.49 455.453H388.803C388.803 448.114 384.716 443.953 381.936 442.971C383.299 441.868 384.17 440.191 384.17 438.31C384.17 436.077 382.937 434.14 381.13 433.102C381.584 432.481 381.853 431.721 381.853 430.897C381.853 428.849 380.194 427.19 378.147 427.19Z" fill="white" stroke="black" stroke-width="0.78185" stroke-linecap="round"/>
<path d="M503.243 427.19C501.195 427.19 499.536 428.849 499.536 430.897C499.536 431.721 499.805 432.481 500.259 433.102C498.452 434.14 497.219 436.077 497.219 438.31C497.219 440.191 498.09 441.868 499.453 442.971C496.673 443.953 492.586 448.114 492.586 455.453H513.899C513.899 448.114 509.812 443.953 507.033 442.971C508.395 441.868 509.266 440.191 509.266 438.31C509.266 436.077 508.033 434.14 506.226 433.102C506.68 432.481 506.949 431.721 506.949 430.897C506.949 428.849 505.29 427.19 503.243 427.19Z" fill="white" stroke="black" stroke-width="0.78185" stroke-linecap="round"/>
<path d="M298.108 58.6203C299.516 58.6203 300.656 57.4794 300.656 56.072C300.656 54.6646 299.516 53.5238 298.108 53.5238C296.701 53.5238 295.56 54.6646 295.56 56.072C295.56 57.4794 296.701 58.6203 298.108 58.6203Z" fill="black"/>
<path d="M305.521 55.8404C306.929 55.8404 308.07 54.6995 308.07 53.2921C308.07 51.8847 306.929 50.7438 305.521 50.7438C304.114 50.7438 302.973 51.8847 302.973 53.2921C302.973 54.6995 304.114 55.8404 305.521 55.8404Z" fill="black"/>
<path d="M313.398 54.9137C314.805 54.9137 315.946 53.7728 315.946 52.3655C315.946 50.9581 314.805 49.8172 313.398 49.8172C311.99 49.8172 310.849 50.9581 310.849 52.3655C310.849 53.7728 311.99 54.9137 313.398 54.9137Z" fill="black"/>
<path d="M321.274 55.8404C322.682 55.8404 323.822 54.6995 323.822 53.2921C323.822 51.8847 322.682 50.7438 321.274 50.7438C319.867 50.7438 318.726 51.8847 318.726 53.2921C318.726 54.6995 319.867 55.8404 321.274 55.8404Z" fill="black"/>
<path d="M328.687 58.6203C330.095 58.6203 331.235 57.4794 331.235 56.072C331.235 54.6646 330.095 53.5238 328.687 53.5238C327.28 53.5238 326.139 54.6646 326.139 56.072C326.139 57.4794 327.28 58.6203 328.687 58.6203Z" fill="black"/>
<path fill-rule="evenodd" clip-rule="evenodd" d="M300.888 69.0449C308.765 67.655 320.348 67.655 325.907 69.0449L328.224 57.462L321.274 68.1183L320.996 55.0527L316.178 67.655L313.398 54.2187L310.618 67.655L305.799 55.0527L305.521 68.1183L298.572 57.462L300.888 69.0449Z" fill="black" stroke="black" stroke-width="0.78185" stroke-linejoin="round"/>
<path fill-rule="evenodd" clip-rule="evenodd" d="M300.888 69.0449C300.888 70.8982 302.278 70.8982 303.205 72.7515C304.131 74.1414 304.131 73.6781 303.668 75.9947C302.278 76.9213 302.741 78.3113 302.741 78.3113C301.351 79.7013 302.741 80.6279 302.741 80.6279C308.765 81.5545 318.031 81.5545 324.054 80.6279C324.054 80.6279 325.444 79.7013 324.054 78.3113C324.054 78.3113 324.517 76.9213 323.127 75.9947C322.664 73.6781 322.664 74.1414 323.591 72.7515C324.517 70.8982 325.907 70.8982 325.907 69.0449C318.031 67.655 308.765 67.655 300.888 69.0449Z" fill="black" stroke="black" stroke-width="0.78185" stroke-linejoin="round"/>
<path d="M302.741 80.6279C309.643 83.0288 317.153 83.0288 324.054 80.6279" stroke="black" stroke-width="0.78185" stroke-linejoin="round"/>
<path d="M302.741 71.8248C309.643 69.424 317.153 69.424 324.054 71.8248" stroke="white" stroke-width="0.78185" stroke-linecap="round" stroke-linejoin="round"/>
<path d="M304.131 74.1414H322.664" stroke="white" stroke-width="0.78185" stroke-linecap="round" stroke-linejoin="round"/>
<path d="M303.205 76.9213C309.823 79.1125 316.972 79.1125 323.591 76.9213" stroke="white" stroke-width="0.78185" stroke-linecap="round" stroke-linejoin="round"/>
<path d="M302.278 79.7013C309.459 82.3223 317.336 82.3223 324.517 79.7013" stroke="white" stroke-width="0.78185" stroke-linecap="round" stroke-linejoin="round"/>
<path fill-rule="evenodd" clip-rule="evenodd" d="M299.788 495.24C299.788 495.732 299.593 496.203 299.245 496.551C298.897 496.898 298.426 497.093 297.935 497.093C297.443 497.093 296.972 496.898 296.624 496.551C296.277 496.203 296.081 495.732 296.081 495.24C296.081 494.749 296.277 494.277 296.624 493.93C296.972 493.582 297.443 493.387 297.935 493.387C298.426 493.387 298.897 493.582 299.245 493.93C299.593 494.277 299.788 494.749 299.788 495.24Z" fill="white" stroke="black" stroke-width="0.78185" stroke-linecap="round" stroke-linejoin="round"/>
<path fill-rule="evenodd" clip-rule="evenodd" d="M315.077 491.07C315.077 491.562 314.882 492.033 314.535 492.381C314.187 492.728 313.716 492.923 313.224 492.923C312.733 492.923 312.261 492.728 311.914 492.381C311.566 492.033 311.371 491.562 311.371 491.07C311.371 490.579 311.566 490.107 311.914 489.76C312.261 489.412 312.733 489.217 313.224 489.217C313.716 489.217 314.187 489.412 314.535 489.76C314.882 490.107 315.077 490.579 315.077 491.07Z" fill="white" stroke="black" stroke-width="0.78185" stroke-linecap="round" stroke-linejoin="round"/>
<path fill-rule="evenodd" clip-rule="evenodd" d="M330.367 495.24C330.367 495.732 330.172 496.203 329.824 496.551C329.476 496.898 329.005 497.093 328.514 497.093C328.022 497.093 327.551 496.898 327.203 496.551C326.856 496.203 326.66 495.732 326.66 495.24C326.66 494.749 326.856 494.277 327.203 493.93C327.551 493.582 328.022 493.387 328.514 493.387C329.005 493.387 329.476 493.582 329.824 493.93C330.172 494.277 330.367 494.749 330.367 495.24Z" fill="white" stroke="black" stroke-width="0.78185" stroke-linecap="round" stroke-linejoin="round"/>
<path fill-rule="evenodd" clip-rule="evenodd" d="M307.201 492.46C307.201 492.952 307.006 493.423 306.658 493.771C306.311 494.118 305.839 494.313 305.348 494.313C304.856 494.313 304.385 494.118 304.037 493.771C303.69 493.423 303.494 492.952 303.494 492.46C303.494 491.969 303.69 491.497 304.037 491.15C304.385 490.802 304.856 490.607 305.348 490.607C305.839 490.607 306.311 490.802 306.658 491.15C307.006 491.497 307.201 491.969 307.201 492.46Z" fill="white" stroke="black" stroke-width="0.78185" stroke-linecap="round" stroke-linejoin="round"/>
<path fill-rule="evenodd" clip-rule="evenodd" d="M322.954 492.46C322.954 492.952 322.758 493.423 322.411 493.771C322.063 494.118 321.592 494.313 321.1 494.313C320.609 494.313 320.138 494.118 319.79 493.771C319.442 493.423 319.247 492.952 319.247 492.46C319.247 491.969 319.442 491.497 319.79 491.15C320.138 490.802 320.609 490.607 321.1 490.607C321.592 490.607 322.063 490.802 322.411 491.15C322.758 491.497 322.954 491.969 322.954 492.46Z" fill="white" stroke="black" stroke-width="0.78185" stroke-linecap="round" stroke-linejoin="round"/>
<path fill-rule="evenodd" clip-rule="evenodd" d="M300.714 508.213C308.591 506.823 317.857 506.823 325.734 508.213L327.587 497.093L321.1 507.286V494.313L316.004 506.823L313.224 492.923L310.444 506.823L305.348 494.313V507.286L298.861 497.093L300.714 508.213Z" fill="white" stroke="black" stroke-width="0.78185" stroke-linejoin="round"/>
<path fill-rule="evenodd" clip-rule="evenodd" d="M300.714 508.213C300.714 510.066 302.104 510.066 303.031 511.92C303.958 513.31 303.958 512.846 303.494 515.163C302.104 516.089 302.568 517.479 302.568 517.479C301.178 518.869 302.568 519.796 302.568 519.796C308.591 520.723 317.857 520.723 323.88 519.796C323.88 519.796 325.27 518.869 323.88 517.479C323.88 517.479 324.344 516.089 322.954 515.163C322.49 512.846 322.49 513.31 323.417 511.92C324.344 510.066 325.734 510.066 325.734 508.213C317.857 506.823 308.591 506.823 300.714 508.213Z" fill="white" stroke="black" stroke-width="0.78185" stroke-linejoin="round"/>
<path d="M303.031 511.92C306.274 510.993 320.174 510.993 323.417 511.92" stroke="black" stroke-width="0.78185" stroke-linecap="round" stroke-linejoin="round"/>
<path d="M303.494 515.163C309.054 514.236 317.394 514.236 322.954 515.163" stroke="black" stroke-width="0.78185" stroke-linecap="round" stroke-linejoin="round"/>
<path fill-rule="evenodd" clip-rule="evenodd" d="M50.5803 80.2225H75.5995V77.4426H50.5803V80.2225Z" fill="black" stroke="black" stroke-width="0.78185" stroke-linejoin="round"/>
<path fill-rule="evenodd" clip-rule="evenodd" d="M53.8235 73.736L55.2135 71.4194H70.9663L72.3563 73.736H53.8235Z" fill="black" stroke="black" stroke-width="0.78185" stroke-linejoin="round"/>
<path fill-rule="evenodd" clip-rule="evenodd" d="M53.3602 77.4426V73.736H72.8196V77.4426H53.3602Z" fill="black" stroke="black" stroke-width="0.78185" stroke-linejoin="round"/>
<path fill-rule="evenodd" clip-rule="evenodd" d="M55.2135 71.4194V59.3732H70.9663V71.4194H55.2135Z" fill="black" stroke="black" stroke-width="0.78185"/>
<path fill-rule="evenodd" clip-rule="evenodd" d="M55.2135 59.3732L52.4336 57.0566H73.7463L70.9663 59.3732H55.2135Z" fill="black" stroke="black" stroke-width="0.78185" stroke-linejoin="round"/>
<path fill-rule="evenodd" clip-rule="evenodd" d="M52.4336 57.0566V52.4234H56.1401V54.2767H60.7733V52.4234H65.4065V54.2767H70.0397V52.4234H73.7463V57.0566H52.4336Z" fill="black" stroke="black" stroke-width="0.78185" stroke-linejoin="round"/>
<path d="M53.3602 76.9793H72.8196" stroke="white" stroke-width="0.521233" stroke-linecap="round"/>
<path d="M54.2869 73.2727H71.893" stroke="white" stroke-width="0.521233" stroke-linecap="round"/>
<path d="M55.2135 71.4194H70.9663" stroke="white" stroke-width="0.521233" stroke-linecap="round"/>
<path d="M55.2135 59.3732H70.9663" stroke="white" stroke-width="0.521233" stroke-linecap="round"/>
<path d="M52.4336 57.0566H73.7463" stroke="white" stroke-width="0.521233" stroke-linecap="round"/>
<path fill-rule="evenodd" clip-rule="evenodd" d="M490.501 80.2225H515.521V77.4426H490.501V80.2225Z" fill="black" stroke="black" stroke-width="0.78185" stroke-linejoin="round"/>
<path fill-rule="evenodd" clip-rule="evenodd" d="M493.745 73.736L495.135 71.4194H510.887L512.277 73.736H493.745Z" fill="black" stroke="black" stroke-width="0.78185" stroke-linejoin="round"/>
<path fill-rule="evenodd" clip-rule="evenodd" d="M493.281 77.4426V73.736H512.741V77.4426H493.281Z" fill="black" stroke="black" stroke-width="0.78185" stroke-linejoin="round"/>
<path fill-rule="evenodd" clip-rule="evenodd" d="M495.135 71.4194V59.3732H510.887V71.4194H495.135Z" fill="black" stroke="black" stroke-width="0.78185"/>
<path fill-rule="evenodd" clip-rule="evenodd" d="M495.135 59.3732L492.355 57.0566H513.667L510.887 59.3732H495.135Z" fill="black" stroke="black" stroke-width="0.78185" stroke-linejoin="round"/>
<path fill-rule="evenodd" clip-rule="evenodd" d="M492.355 57.0566V52.4234H496.061V54.2767H500.694V52.4234H505.328V54.2767H509.961V52.4234H513.667V57.0566H492.355Z" fill="black" stroke="black" stroke-width="0.78185" stroke-linejoin="round"/>
<path d="M493.281 76.9793H512.741" stroke="white" stroke-width="0.521233" stroke-linecap="round"/>
<path d="M494.208 73.2727H511.814" stroke="white" stroke-width="0.521233" stroke-linecap="round"/>
<path d="M495.135 71.4194H510.887" stroke="white" stroke-width="0.521233" stroke-linecap="round"/>
<path d="M495.135 59.3732H510.887" stroke="white" stroke-width="0.521233" stroke-linecap="round"/>
<path d="M492.355 57.0566H513.667" stroke="white" stroke-width="0.521233" stroke-linecap="round"/>
<path fill-rule="evenodd" clip-rule="evenodd" d="M50.5803 518.58H75.5995V515.8H50.5803V518.58Z" fill="white" stroke="black" stroke-width="0.78185" stroke-linejoin="round"/>
<path fill-rule="evenodd" clip-rule="evenodd" d="M53.3602 515.8V512.093H72.8196V515.8H53.3602Z" fill="white" stroke="black" stroke-width="0.78185" stroke-linejoin="round"/>
<path fill-rule="evenodd" clip-rule="evenodd" d="M52.4336 495.414V490.781H56.1401V492.634H60.7733V490.781H65.4065V492.634H70.0397V490.781H73.7463V495.414" fill="white"/>
<path d="M52.4336 495.414V490.781H56.1401V492.634H60.7733V490.781H65.4065V492.634H70.0397V490.781H73.7463V495.414" stroke="black" stroke-width="0.78185" stroke-linejoin="round"/>
<path fill-rule="evenodd" clip-rule="evenodd" d="M73.7463 495.414L70.9663 498.194H55.2135L52.4336 495.414" fill="white"/>
<path d="M73.7463 495.414L70.9663 498.194H55.2135L52.4336 495.414" stroke="black" stroke-width="0.78185" stroke-linecap="round" stroke-linejoin="round"/>
<path fill-rule="evenodd" clip-rule="evenodd" d="M70.9663 498.194V509.777H55.2135V498.194" fill="white"/>
<path d="M70.9663 498.194V509.777H55.2135V498.194" stroke="black" stroke-width="0.78185"/>
<path fill-rule="evenodd" clip-rule="evenodd" d="M70.9663 509.777L72.3563 512.093H53.8235L55.2135 509.777" fill="white"/>
<path d="M70.9663 509.777L72.3563 512.093H53.8235L55.2135 509.777" stroke="black" stroke-width="0.78185" stroke-linecap="round" stroke-linejoin="round"/>
<path d="M52.4336 495.414H73.7463" stroke="black" stroke-width="0.78185" stroke-linecap="round"/>
<path fill-rule="evenodd" clip-rule="evenodd" d="M490.501 518.58H515.521V515.8H490.501V518.58Z" fill="white" stroke="black" stroke-width="0.78185" stroke-linejoin="round"/>
<path fill-rule="evenodd" clip-rule="evenodd" d="M493.281 515.8V512.093H512.741V515.8H493.281Z" fill="white" stroke="black" stroke-width="0.78185" stroke-linejoin="round"/>
<path fill-rule="evenodd" clip-rule="evenodd" d="M492.355 495.414V490.781H496.061V492.634H500.694V490.781H505.328V492.634H509.961V490.781H513.667V495.414" fill="white"/>
<path d="M492.355 495.414V490.781H496.061V492.634H500.694V490.781H505.328V492.634H509.961V490.781H513.667V495.414" stroke="black" stroke-width="0.78185" stroke-linejoin="round"/>
<path fill-rule="evenodd" clip-rule="evenodd" d="M513.667 495.414L510.887 498.194H495.135L492.355 495.414" fill="white"/>
<path d="M513.667 495.414L510.887 498.194H495.135L492.355 495.414" stroke="black" stroke-width="0.78185" stroke-linecap="round" stroke-linejoin="round"/>
<path fill-rule="evenodd" clip-rule="evenodd" d="M510.887 498.194V509.777H495.135V498.194" fill="white"/>
<path d="M510.887 498.194V509.777H495.135V498.194" stroke="black" stroke-width="0.78185"/>
<path fill-rule="evenodd" clip-rule="evenodd" d="M510.887 509.777L512.277 512.093H493.745L495.135 509.777" fill="white"/>
<path d="M510.887 509.777L512.277 512.093H493.745L495.135 509.777" stroke="black" stroke-width="0.78185" stroke-linecap="round" stroke-linejoin="round"/>
<path d="M492.355 495.414H513.667" stroke="black" stroke-width="0.78185" stroke-linecap="round"/>
</g>
<defs>
<filter id="filter0_f_1_425" x="0.0206842" y="0.821275" width="562.932" height="569.187" filterUnits="userSpaceOnUse" color-interpolation-filters="sRGB">
<feFlood flood-opacity="0" result="BackgroundImageFix"/>
<feBlend mode="normal" in="SourceGraphic" in2="BackgroundImageFix" result="shape"/>
<feGaussianBlur stdDeviation="2.08493" result="effect1_foregroundBlur_1_425"/>
</filter>
<clipPath id="clip0_1_425">
<rect x="31.2947" y="35.2227" width="500.384" height="500.384" rx="5.21233" fill="white"/>
</clipPath>
</defs>
</svg>
