<svg width="29" height="29" viewBox="0 0 29 29" fill="none" xmlns="http://www.w3.org/2000/svg">
<path d="M14.4519 5.00905V0.354507" stroke="white" stroke-width="0.697561" stroke-linecap="round"/>
<path fill-rule="evenodd" clip-rule="evenodd" d="M14.4519 16.0626C14.4519 16.0626 18.1722 9.86201 16.9321 7.38179C16.9321 7.38179 16.1054 5.31494 14.4519 5.31494C12.7984 5.31494 11.9717 7.38179 11.9717 7.38179C10.7316 9.86201 14.4519 16.0626 14.4519 16.0626Z" fill="white" stroke="white" stroke-width="0.697561"/>
<path fill-rule="evenodd" clip-rule="evenodd" d="M6.1845 25.9834C10.7316 28.877 18.1722 28.877 22.7193 25.9834V20.1963C22.7193 20.1963 30.1599 16.4759 27.6797 11.5155C24.3728 6.14169 16.5187 8.62191 14.4519 14.8225V17.716V14.8225C12.385 8.62191 4.53102 6.14169 1.22406 11.5155C-1.25616 16.4759 6.1845 20.1963 6.1845 20.1963V25.9834Z" fill="white" stroke="white" stroke-width="0.697561" stroke-linecap="round" stroke-linejoin="round"/>
<path d="M12.385 2.00798H16.5187" stroke="white" stroke-width="0.697561" stroke-linecap="round"/>
<path d="M22.3059 19.7829C22.3059 19.7829 29.3332 16.4759 27.2912 11.8048C24.0834 6.96842 16.5187 10.2754 14.4519 15.6492V17.3853V15.6492C12.385 10.2754 4.82038 6.96842 1.61263 11.8048C-0.429414 16.4759 6.59787 19.7829 6.59787 19.7829" stroke="black" stroke-width="0.697561" stroke-linecap="round" stroke-linejoin="round"/>
<path d="M6.18451 25.9834C10.7316 23.5032 18.1722 23.5032 22.7193 25.9834M6.18451 20.1963C10.7316 17.716 18.1722 17.716 22.7193 20.1963H6.18451ZM6.18451 23.0898C10.7316 20.6096 18.1722 20.6096 22.7193 23.0898H6.18451Z" stroke="black" stroke-width="0.697561" stroke-linecap="round" stroke-linejoin="round"/>
</svg>
