<svg width="1000" height="1000" viewBox="0 0 1000 1000" fill="none" xmlns="http://www.w3.org/2000/svg">
<rect width="1000" height="1000" rx="16" fill="white"/>
<g clip-path="url(#clip0_211_130)">
<rect x="20" y="20" width="120" height="120" fill="white"/>
<rect x="20" y="140" width="120" height="120" fill="#48454A"/>
<rect x="20" y="260" width="120" height="120" fill="white"/>
<rect x="20" y="380" width="120" height="120" fill="#48454A"/>
<rect x="20" y="500" width="120" height="120" fill="white"/>
<rect x="20" y="620" width="120" height="120" fill="#48454A"/>
<rect x="20" y="740" width="120" height="120" fill="white"/>
<rect x="20" y="860" width="120" height="120" fill="#48454A"/>
<rect x="500" y="20" width="120" height="120" fill="white"/>
<rect x="500" y="140" width="120" height="120" fill="#48454A"/>
<rect x="500" y="260" width="120" height="120" fill="white"/>
<rect x="500" y="380" width="120" height="120" fill="#48454A"/>
<rect x="500" y="500" width="120" height="120" fill="white"/>
<rect x="500" y="620" width="120" height="120" fill="#48454A"/>
<rect x="500" y="740" width="120" height="120" fill="white"/>
<rect x="500" y="860" width="120" height="120" fill="#48454A"/>
<rect x="260" y="20" width="120" height="120" fill="white"/>
<rect x="260" y="140" width="120" height="120" fill="#48454A"/>
<rect x="260" y="260" width="120" height="120" fill="white"/>
<rect x="260" y="380" width="120" height="120" fill="#48454A"/>
<rect x="260" y="500" width="120" height="120" fill="white"/>
<rect x="260" y="620" width="120" height="120" fill="#48454A"/>
<rect x="260" y="740" width="120" height="120" fill="white"/>
<rect x="260" y="860" width="120" height="120" fill="#48454A"/>
<rect x="740" y="20" width="120" height="120" fill="white"/>
<rect x="740" y="140" width="120" height="120" fill="#48454A"/>
<rect x="740" y="260" width="120" height="120" fill="white"/>
<rect x="740" y="380" width="120" height="120" fill="#48454A"/>
<rect x="740" y="500" width="120" height="120" fill="white"/>
<rect x="740" y="620" width="120" height="120" fill="#48454A"/>
<rect x="740" y="740" width="120" height="120" fill="white"/>
<rect x="740" y="860" width="120" height="120" fill="#48454A"/>
<rect x="140" y="20" width="120" height="120" fill="#48454A"/>
<rect x="140" y="140" width="120" height="120" fill="white"/>
<rect x="140" y="260" width="120" height="120" fill="#48454A"/>
<rect x="140" y="380" width="120" height="120" fill="white"/>
<rect x="140" y="500" width="120" height="120" fill="#48454A"/>
<rect x="140" y="620" width="120" height="120" fill="white"/>
<rect x="140" y="740" width="120" height="120" fill="#48454A"/>
<rect x="140" y="860" width="120" height="120" fill="white"/>
<rect x="620" y="20" width="120" height="120" fill="#48454A"/>
<rect x="620" y="140" width="120" height="120" fill="white"/>
<rect x="620" y="260" width="120" height="120" fill="#48454A"/>
<rect x="620" y="380" width="120" height="120" fill="white"/>
<rect x="620" y="500" width="120" height="120" fill="#48454A"/>
<rect x="620" y="620" width="120" height="120" fill="white"/>
<rect x="620" y="740" width="120" height="120" fill="#48454A"/>
<rect x="620" y="860" width="120" height="120" fill="white"/>
<rect x="380" y="20" width="120" height="120" fill="#48454A"/>
<rect x="380" y="140" width="120" height="120" fill="white"/>
<rect x="380" y="260" width="120" height="120" fill="#48454A"/>
<rect x="380" y="380" width="120" height="120" fill="white"/>
<rect x="380" y="500" width="120" height="120" fill="#48454A"/>
<rect x="380" y="620" width="120" height="120" fill="white"/>
<rect x="380" y="740" width="120" height="120" fill="#48454A"/>
<rect x="380" y="860" width="120" height="120" fill="white"/>
<rect x="860" y="20" width="120" height="120" fill="#48454A"/>
<rect x="860" y="140" width="120" height="120" fill="white"/>
<rect x="860" y="260" width="120" height="120" fill="#48454A"/>
<rect x="860" y="380" width="120" height="120" fill="white"/>
<rect x="860" y="500" width="120" height="120" fill="#48454A"/>
<rect x="860" y="620" width="120" height="120" fill="white"/>
<rect x="860" y="740" width="120" height="120" fill="#48454A"/>
<rect x="860" y="860" width="120" height="120" fill="white"/>
</g>
<rect x="20.5" y="20.5" width="959" height="959" rx="9.5" stroke="#B3B2B4"/>
<defs>
<clipPath id="clip0_211_130">
<rect x="20" y="20" width="960" height="960" rx="10" fill="white"/>
</clipPath>
</defs>
</svg>
